<?xml version="1.0" encoding="UTF-8" standalone="no" ?>
<!DOCTYPE svg PUBLIC "-//W3C//DTD SVG 1.1//EN" "http://www.w3.org/Graphics/SVG/1.1/DTD/svg11.dtd">
<svg xmlns="http://www.w3.org/2000/svg" xmlns:xlink="http://www.w3.org/1999/xlink" version="1.1" width="1080" height="1080" viewBox="0 0 1080 1080" xml:space="preserve">
<desc>Created with Fabric.js 5.2.4</desc>
<defs>
</defs>
<g transform="matrix(1 0 0 1 540 540)" id="46e8a46a-b792-4bc5-806d-a8d94b437e59"  >
<rect style="stroke: none; stroke-width: 1; stroke-dasharray: none; stroke-linecap: butt; stroke-dashoffset: 0; stroke-linejoin: miter; stroke-miterlimit: 4; fill: rgb(255,255,255); fill-rule: nonzero; opacity: 1; visibility: hidden;" vector-effect="non-scaling-stroke"  x="-540" y="-540" rx="0" ry="0" width="1080" height="1080" />
</g>
<g transform="matrix(1 0 0 1 540 540)" id="38ed1fd3-df00-45d7-a902-8effbb55e040"  >
</g>
<g transform="matrix(1.03 0 0 1 540 540)"  >
<g style="" vector-effect="non-scaling-stroke"   >
		<g transform="matrix(1 0 0 1 -0.06 284.55)"  >
<path style="stroke: none; stroke-width: 1; stroke-dasharray: none; stroke-linecap: butt; stroke-dashoffset: 0; stroke-linejoin: miter; stroke-miterlimit: 4; fill: rgb(238,218,165); fill-rule: nonzero; opacity: 1;" vector-effect="non-scaling-stroke"  transform=" translate(-1185.83, -1378.57)" d="M 1405.310547 1567.094238 C 1361.167603 1590.652222 1315.249756 1606.892456 1266.541992 1614.890015 C 1222.905396 1622.054688 1179.075806 1622.784546 1135.08374 1618.584351 C 1081.486816 1613.467407 1030.219971 1599.667725 982.244873 1575.37793 C 851.489685 1509.176758 768.782532 1405.165039 738.699036 1260.990967 C 730.508484 1221.738159 730.028015 1181.606445 729.96936 1141.59668 C 729.967957 1140.63147 730.359863 1139.665771 730.816528 1137.550415 C 736.754333 1137.091431 742.953918 1136.209351 749.155518 1136.195557 C 806.131958 1136.069214 863.108826 1136.067505 920.08551 1136.084351 C 950.073364 1136.093262 980.061218 1136.21228 1010.049072 1136.279419 C 1013.357971 1136.286865 1016.66687 1136.280273 1021.348938 1136.280273 C 1021.635193 1140.794434 1021.915955 1144.950684 1022.159851 1149.109131 C 1025.317017 1202.932007 1047.807373 1246.388306 1092.112305 1277.661011 C 1119.227051 1296.800049 1149.556763 1305.942505 1182.993408 1306.389648 C 1222.910156 1306.923218 1258.790894 1296.405518 1289.356567 1270.539795 C 1327.48999 1238.269897 1348.66394 1197.599731 1347.866089 1146.737183 C 1347.819336 1143.754639 1347.859985 1140.770874 1347.859985 1137.914795 C 1355.350952 1135.88501 1625.340088 1135.218628 1641.553589 1137.080078 C 1641.553589 1149.317017 1641.895386 1161.582764 1641.491089 1173.823975 C 1640.125366 1215.176514 1636.223999 1256.185547 1624.935425 1296.235962 C 1597.330688 1394.17395 1541.12439 1472.151367 1459.705078 1532.248413 C 1442.61499 1544.862915 1423.896851 1555.271484 1405.310547 1567.094238 M 806.636169 1231.009644 C 795.718201 1231.313965 784.800293 1231.618286 773.954773 1231.920532 C 773.517883 1252.828003 787.199341 1306.776367 795.872253 1318.427368 C 836.323059 1302.264282 875.351929 1282.232056 916.501587 1266.761841 C 918.720764 1276.878784 918.727234 1277.30957 912.306702 1281.067505 C 907.72229 1283.750488 902.91333 1286.089355 898.069092 1288.282349 C 869.873413 1301.046143 841.626709 1313.697266 813.427734 1326.453857 C 809.270325 1328.334595 805.275696 1330.575195 800.560791 1332.978027 C 811.970215 1361.786011 826.787354 1387.526733 844.50293 1412.443359 C 861.598083 1398.316406 878.072937 1384.822998 894.416077 1371.171753 C 931.492859 1340.202271 968.537903 1309.19458 1005.508118 1278.098145 C 1011.295654 1273.230103 1016.622559 1267.814453 1022.224548 1262.594116 C 1015.410645 1251.25769 1009.134399 1240.815918 1003.163147 1230.88147 C 937.81189 1230.88147 873.176758 1230.88147 806.636169 1231.009644 M 1480.80481 1374.208252 C 1495.828979 1386.242188 1510.203003 1399.138428 1526.070923 1409.601685 C 1539.20105 1399.414307 1568.565552 1347.485718 1569.987305 1331.953247 C 1530.838257 1313.965454 1491.386963 1295.838745 1451.283325 1277.412354 C 1453.196411 1272.969482 1454.562988 1269.795898 1456.194336 1266.007202 C 1468.457397 1271.355469 1479.716309 1276.215698 1490.934326 1281.168701 C 1514.980957 1291.785278 1538.972412 1302.527344 1563.071045 1313.023926 C 1567.489502 1314.94873 1572.308228 1315.954956 1578.064697 1317.731567 C 1587.930298 1289.38147 1595.300903 1261.756226 1599.139648 1232.203491 C 1521.720947 1229.56897 1445.518433 1230.775879 1369.024658 1230.450562 C 1362.406494 1241.47168 1355.961914 1252.203613 1348.846191 1264.053345 C 1392.821777 1300.780762 1436.256348 1337.056396 1480.80481 1374.208252 M 1235.129639 1340.093994 C 1231.09375 1340.817993 1230.289551 1343.934204 1229.401245 1347.306152 C 1225.590698 1361.771973 1221.57251 1376.183105 1217.70166 1390.633301 C 1217.143188 1392.718262 1216.975342 1394.907837 1216.516846 1397.723022 C 1234.448975 1398.13562 1251.616943 1398.53064 1270.162842 1398.957397 C 1262.39624 1420.822754 1255.241699 1441.082642 1248.002686 1461.312378 C 1240.83374 1481.345825 1233.389526 1501.282837 1226.416016 1521.383545 C 1219.42688 1541.529175 1211.145996 1561.25708 1204.920044 1582.483521 C 1234.783691 1582.202026 1262.715454 1578.071655 1290.133301 1570.983887 C 1306.19043 1566.832886 1321.931885 1561.372803 1337.637451 1555.983032 C 1347.401611 1552.632324 1348.180298 1550.085571 1344.451538 1540.247925 C 1343.391724 1537.452148 1342.163208 1534.718384 1340.958618 1531.979614 C 1336.541016 1521.934937 1331.866821 1511.995972 1327.708496 1501.845459 C 1306.40564 1449.844116 1285.241211 1397.786133 1264.000244 1345.759399 C 1262.278198 1341.541504 1260.343872 1337.410156 1258.232422 1332.612061 C 1250.425903 1335.171631 1243.539551 1337.429443 1235.129639 1340.093994 M 1090.47229 1389.567505 C 1070.894531 1436.514282 1051.285645 1483.448242 1031.772827 1530.422119 C 1028.872192 1537.404907 1026.425049 1544.576294 1023.473267 1552.446411 C 1027.369873 1554.044922 1030.298706 1555.48291 1033.373291 1556.465698 C 1045.083496 1560.209473 1056.772705 1564.045654 1068.594238 1567.410034 C 1096.498413 1575.351562 1124.797852 1581.190063 1153.915405 1582.134766 C 1157.700928 1582.257568 1161.503662 1581.844116 1166.19519 1581.640137 C 1144.289673 1520.654663 1122.856689 1460.984741 1101.095703 1400.401855 C 1119.52124 1396.645264 1137.134399 1399.457031 1155.540649 1397.672363 C 1150.631226 1380.109619 1146.130493 1363.466675 1141.205933 1346.950195 C 1140.424683 1344.3302 1138.202637 1341.192993 1135.836182 1340.1698 C 1128.715698 1337.091309 1121.19458 1334.939209 1113.509033 1332.316162 C 1105.687744 1351.852661 1098.413818 1370.021851 1090.47229 1389.567505 M 1592.637207 1345.65979 C 1620.062866 1283.306396 1629.811523 1217.956787 1627.216431 1150.300049 C 1621.128174 1148.988281 1617.846802 1149.954956 1617.549194 1155.434814 C 1617.116089 1163.414551 1616.504028 1171.39917 1616.475708 1179.383545 C 1616.380859 1206.106323 1614.349976 1232.63501 1608.785645 1258.806152 C 1583.942627 1375.651733 1520.551147 1466.105835 1420.116577 1529.970215 C 1321.327637 1592.787964 1213.080078 1611.207153 1099.001221 1588.8396 C 976.421875 1564.80542 881.467163 1498.336548 815.191528 1392.140991 C 782.60083 1339.920044 763.39386 1282.80896 757.831726 1221.40625 C 755.970276 1200.856567 755.547424 1180.177002 754.442139 1159.558105 C 754.317383 1157.231323 754.477905 1154.740356 753.670898 1152.647583 C 753.065308 1151.077271 751.008118 1148.886108 749.794861 1149.00415 C 747.922241 1149.186401 745.250732 1150.75354 744.661255 1152.369141 C 743.679321 1155.061157 743.888428 1158.258545 743.922791 1161.23938 C 744.280823 1192.262207 746.210083 1223.18457 751.797485 1253.733398 C 768.635376 1345.793213 809.960205 1425.159668 879.299622 1488.154053 C 993.155334 1591.591187 1126.986694 1626.966675 1277.530762 1598.279297 C 1416.316162 1571.832642 1537.758057 1474.804077 1592.637207 1345.65979 M 939.694336 1452.660278 C 978.450195 1401.89978 1017.206055 1351.139282 1056.002319 1300.325806 C 1047.257446 1291.433838 1039.220947 1283.262207 1031.009399 1274.912476 C 971.447449 1324.513794 912.366211 1373.714722 852.78064 1423.335693 C 871.08374 1446.48938 890.807373 1467.402954 913.745483 1486.96521 C 922.434021 1475.458374 930.617859 1464.620117 939.694336 1452.660278 M 1500.868286 1408.097046 C 1447.518188 1364.069824 1394.168213 1320.042725 1340.052002 1275.383301 C 1331.487183 1283.599854 1323.657593 1291.111084 1315.130493 1299.291504 C 1362.425659 1361.782349 1409.183716 1423.563477 1456.474976 1486.049194 C 1480.024292 1467.01001 1500.740112 1447.194946 1518.629639 1423.47522 C 1512.482788 1418.133789 1507.22583 1413.565552 1500.868286 1408.097046 M 872.912842 1150.990723 C 838.752869 1150.990723 804.592834 1150.990723 770.500671 1150.990723 C 768.962219 1170.710327 770.168213 1209.953003 772.611633 1217.5979 C 846.63623 1217.108643 920.833862 1218.637817 994.932068 1216.43457 C 991.108276 1194.419067 987.445435 1173.3302 983.565857 1150.993286 C 947.430969 1150.993286 911.155273 1150.993286 872.912842 1150.990723 M 1409.080688 1150.348877 C 1402.210083 1150.348877 1395.3396 1150.348877 1389.395996 1150.348877 C 1384.756592 1173.126831 1380.412964 1194.453125 1376.044312 1215.902344 C 1450.872803 1216.822388 1525.71167 1217.742554 1601.237305 1218.671143 C 1602.527832 1195.404663 1605.461426 1173.060425 1600.710327 1150.944702 C 1599.296997 1150.658081 1598.64917 1150.412109 1598.001221 1150.411743 C 1535.687378 1150.378784 1473.373657 1150.36438 1409.080688 1150.348877 M 1024.98999 1364.020508 C 1014.916138 1377.473755 1004.308655 1390.560913 995.42865 1405.136963 C 998.233459 1407.084839 1000.412537 1408.127441 1001.968994 1409.762573 C 1007.894897 1415.987915 1014.924683 1421.639771 1019.175598 1428.8927 C 1032.030396 1450.825806 1022.712463 1479.74353 999.915283 1491.051758 C 984.743103 1498.577637 968.374817 1501.178345 951.641235 1502.132446 C 947.321228 1502.378784 943.029907 1503.128906 938.725403 1503.647705 C 960.552124 1521.120972 983.948242 1534.121826 1008.835266 1546.626343 C 1011.325623 1541.40686 1013.782715 1536.786621 1015.785706 1531.977417 C 1037.257812 1480.421143 1058.718018 1428.859863 1080.038696 1377.240845 C 1085.875488 1363.109375 1091.352173 1348.825195 1096.764893 1334.524292 C 1099.546021 1327.176392 1099.189941 1325.889526 1092.906494 1322.239624 C 1084.932129 1317.607666 1076.664429 1313.481079 1067.93335 1308.821655 C 1053.586792 1327.265625 1039.72876 1345.081543 1024.98999 1364.020508 M 1399.507202 1526.538574 C 1411.093018 1519.87915 1422.43103 1512.855713 1432.947021 1504.241211 C 1426.674316 1502.911255 1420.72998 1502.494385 1414.789429 1502.030151 C 1401.115723 1500.961304 1387.668335 1498.777222 1375.129028 1492.900146 C 1357.704468 1484.733521 1347.518311 1470.980469 1346.131836 1451.806152 C 1344.761597 1432.856323 1355.175415 1419.817871 1369.966309 1409.630615 C 1372.298218 1408.024536 1374.75708 1406.602905 1377.69873 1404.755981 C 1353.113037 1372.512329 1328.955811 1340.830688 1304.382324 1308.603027 C 1292.746094 1315.228149 1282.08728 1320.976562 1272.383911 1328.197998 C 1287.018555 1364.932129 1301.070435 1400.849365 1315.63208 1436.558716 C 1328.189453 1467.352905 1341.255737 1497.940796 1354.272583 1528.545166 C 1356.687012 1534.222168 1358.720825 1540.352783 1365.074341 1545.031006 C 1376.101318 1539.154663 1387.189087 1533.245972 1399.507202 1526.538574 M 1335.917236 1238.8573 C 1295.173218 1303.640015 1220.202637 1334.807495 1140.297119 1314.575317 C 1076.147583 1298.332642 1036.054077 1255.692871 1016.210938 1193.43396 C 1012.49353 1181.770264 1010.85022 1169.438721 1008.381348 1157.388428 C 1007.693237 1154.029907 1007.440857 1150.60437 1001.466003 1150.654663 C 1000.967896 1153.501099 999.68335 1156.640137 1000.032288 1159.585449 C 1001.436707 1171.438721 1002.067078 1183.591675 1005.272095 1194.990479 C 1030.126465 1283.385132 1115.550659 1340.387207 1207.405029 1330.434326 C 1284.297119 1322.102783 1348.687988 1266.620117 1366.897217 1192.261353 C 1369.88147 1180.074951 1370.383057 1167.271851 1371.866821 1154.734131 C 1372.17395 1152.13916 1372.129639 1148.553711 1368.511475 1148.856812 C 1366.663208 1149.011597 1364.484619 1151.744629 1363.488525 1153.810547 C 1362.378662 1156.112427 1362.244019 1158.963989 1362.026611 1161.60437 C 1359.769287 1189.013062 1351.066162 1214.255493 1335.917236 1238.8573 M 1217.974243 1435.066162 C 1189.438599 1434.274414 1160.914917 1434.040405 1131.275146 1436.22522 C 1132.452881 1441.537354 1132.967773 1446.121094 1134.483398 1450.346069 C 1149.509033 1492.23291 1164.674561 1534.069824 1179.908813 1575.881348 C 1180.82019 1578.382202 1182.656372 1580.546265 1184.738403 1583.983398 C 1187.170654 1580.808472 1188.959961 1579.253418 1189.775879 1577.293091 C 1208.758789 1531.69104 1224.091919 1484.766113 1241.442627 1437.828369 C 1233.668335 1434.794678 1226.618286 1435.888672 1217.974243 1435.066162 M 1425.381958 1467.655884 C 1413.525024 1451.95105 1401.668091 1436.246338 1389.811157 1420.541504 C 1389.325439 1420.838501 1388.839722 1421.13562 1388.354004 1421.432739 C 1388.354004 1441.540161 1388.354004 1461.647461 1388.354004 1481.559448 C 1399.671509 1486.791504 1422.846924 1489.571167 1439.722534 1487.507202 C 1434.955933 1480.927856 1430.575806 1474.881714 1425.381958 1467.655884 M 982.124146 1441.128296 C 981.923035 1434.466064 982.978088 1427.704346 981.433899 1419.35083 C 963.963257 1442.919312 947.701843 1464.856445 930.63324 1487.882568 C 948.640686 1489.010986 964.554138 1487.323853 980.982117 1482.963745 C 981.350281 1469.568115 981.714111 1456.328003 982.124146 1441.128296 M 1179.039551 1345.526733 C 1171.901855 1345.873169 1164.635132 1344.937622 1156.68811 1347.014404 C 1158.398926 1353.585449 1159.894043 1359.307495 1161.377808 1365.032593 C 1163.713257 1374.044067 1165.901978 1383.097046 1168.436401 1392.052246 C 1169.556274 1396.009399 1171.37915 1399.756348 1177.700439 1397.143311 C 1177.339966 1391.94519 1176.96521 1386.541138 1176.552368 1380.588135 C 1182.998047 1380.704956 1188.870361 1379.036743 1194.939331 1382.319946 C 1194.177124 1387.61377 1193.456543 1392.618408 1192.745239 1397.558716 C 1198.966919 1399.052612 1200.699585 1395.218262 1201.936035 1391.361816 C 1204.268555 1384.087646 1206.31665 1376.718506 1208.334717 1369.348267 C 1210.316162 1362.111206 1212.113403 1354.823608 1214.338501 1346.215576 C 1202.201172 1345.964111 1191.614136 1345.744751 1179.039551 1345.526733 M 1125.737061 1420.146973 C 1164.606934 1420.699829 1203.476807 1421.254883 1242.346802 1421.793091 C 1243.338135 1421.806763 1244.374512 1421.789307 1245.317139 1421.526123 C 1248.57373 1420.617065 1250.441895 1418.638916 1249.960327 1415.028687 C 1237.253296 1410.999756 1132.622314 1411.246216 1118.717041 1417.274902 C 1120.517578 1418.109741 1122.318115 1418.94458 1125.737061 1420.146973 M 995.8927 1445.071045 C 996.44397 1454.779053 994.664246 1464.648682 997.249207 1474.453979 C 1005.775208 1470.79248 1009.507263 1464.335449 1009.877136 1452.725952 C 1010.244385 1441.199951 1007.923279 1430.799194 995.8927 1423.081665 C 995.8927 1430.757324 995.8927 1436.937744 995.8927 1445.071045 M 1363.914551 1435.422729 C 1357.067383 1453.743286 1359.772827 1465.660645 1372.85022 1474.782471 C 1375.151611 1461.077148 1374.44397 1430.764893 1371.295532 1423.824219 C 1368.858521 1427.487671 1366.689697 1430.748047 1363.914551 1435.422729 z" stroke-linecap="round" />
</g>
		<g transform="matrix(1 0 0 1 0.18 -329.39)"  >
<path style="stroke: none; stroke-width: 1; stroke-dasharray: none; stroke-linecap: butt; stroke-dashoffset: 0; stroke-linejoin: miter; stroke-miterlimit: 4; fill: rgb(239,219,166); fill-rule: nonzero; opacity: 1;" vector-effect="non-scaling-stroke"  transform=" translate(-1186.08, -764.63)" d="M 1641.963257 869.999756 C 1641.963257 884.977234 1641.963257 898.954834 1641.963257 913.608826 C 1639.108765 913.888916 1636.61499 914.200439 1634.111694 914.366699 C 1626.472778 914.87439 1618.829224 915.31189 1611.189209 915.80426 C 1604.893921 916.209961 1600.700562 919.034241 1596.466797 924.256348 C 1578.747437 946.112366 1555.8573 959.380127 1527.426025 961.917358 C 1521.469238 962.449036 1515.429565 962.467285 1509.448975 962.219604 C 1501.398438 961.886169 1500.599365 960.728577 1500.357666 950.488159 C 1503.94812 949.801453 1507.718384 948.784119 1511.550781 948.419067 C 1516.851074 947.914062 1522.199707 947.934509 1527.52478 947.669983 C 1550.897339 946.509155 1568.620117 934.604797 1584.748413 918.225098 C 1573.893677 915.425964 812.148132 916.070618 789.084595 918.792786 C 790.485168 920.873047 791.388428 922.804077 792.803467 924.225647 C 807.83075 939.323853 826.20636 946.945618 847.328186 948.006714 C 854.578125 948.370972 861.861694 948.064636 870.119263 948.064636 C 869.653259 953.094666 869.301331 956.893677 868.882263 961.416626 C 840.627014 963.67334 814.350159 960.791077 792.389343 941.919128 C 784.649109 935.267517 777.919739 927.304993 771.489014 919.328247 C 768.793945 915.985535 765.936218 914.769531 762.266357 914.636536 C 755.276062 914.383301 748.274292 914.435852 741.277161 914.383911 C 737.687439 914.3573 734.09729 914.379272 730.189941 914.379272 C 730.189941 798.198181 730.189941 682.951843 730.189941 566.99585 C 828.493591 566.99585 926.589233 566.99585 1025.774658 566.99585 C 1025.774658 677.824646 1025.774658 788.572754 1025.774658 900.286377 C 1030.078369 900.286377 1033.317627 900.290955 1036.556885 900.285706 C 1069.215454 900.233093 1101.876343 899.965576 1134.530884 900.305359 C 1141.036621 900.373047 1144.762085 898.15033 1148.428101 893.106201 C 1159.759766 877.514221 1171.598145 862.290527 1184.035767 845.873291 C 1187.250977 849.046143 1190.26709 851.467285 1192.604736 854.424622 C 1203.140259 867.753052 1213.570923 881.167175 1223.838745 894.702576 C 1226.63147 898.383972 1229.449097 900.443665 1234.478638 900.410217 C 1270.468628 900.170593 1306.460938 900.277222 1342.452515 900.251709 C 1343.41394 900.250977 1344.375122 900.00061 1346.570312 899.694702 C 1347.20752 788.99707 1345.335571 678.223877 1347.826416 566.894897 C 1446.112183 566.894897 1543.548706 566.894897 1641.963257 566.894897 C 1641.963257 667.902344 1641.963257 768.451111 1641.963257 869.999756 M 1603.893433 709 C 1603.893433 675.114868 1603.893433 641.229797 1603.893433 606.298096 C 1531.147339 606.784302 1459.431396 605.298523 1386.846924 607.818787 C 1386.846924 705.880615 1386.846924 802.672852 1386.846924 900.313721 C 1393.293579 900.313721 1399.552368 900.31366 1405.811157 900.31366 C 1412.419067 900.31366 1419.026855 900.313721 1425.082886 900.313721 C 1442.030518 874.29071 1470.671143 819.618958 1472.134644 810.677673 C 1471.742432 810.170715 1471.449341 809.422546 1470.919312 809.168701 C 1468.233643 807.882141 1465.493042 806.708984 1462.76001 805.523071 C 1435.562012 793.721252 1415.444702 775.041809 1405.044067 746.693909 C 1392.096313 711.403687 1400.599854 672.174622 1426.436279 649.299622 C 1427.921631 647.984558 1429.828491 647.145508 1432.60376 645.425171 C 1431.351685 655.841187 1430.684814 665.077881 1425.333008 672.556702 C 1414.325439 687.939453 1412.371582 705.194519 1414.163696 723.089233 C 1418.218506 763.577026 1445.293091 784.749023 1474.698608 795.117249 C 1479.283325 796.733826 1482.564087 795.179504 1484.524902 790.937439 C 1486.185181 787.346069 1487.537598 783.612366 1489.032227 779.944153 C 1500.559814 776.726135 1502.271118 777.600464 1505.968628 788.189575 C 1506.904907 790.871277 1508.235474 793.415344 1509.158569 795.509521 C 1510.995483 795.66449 1511.665039 795.82843 1512.304932 795.749939 C 1513.287842 795.629456 1514.274902 795.418457 1515.21814 795.115051 C 1546.134766 785.169434 1566.476929 764.458191 1574.989014 733.354675 C 1580.452515 713.391052 1578.132812 692.891296 1566.595459 675.696533 C 1560.122559 666.049683 1560.294189 656.339111 1558.604004 646.103821 C 1565.886841 651.173767 1570.838867 658.158447 1575.81189 665.081482 C 1595.292847 692.202148 1596.795288 721.333008 1583.937622 751.25116 C 1574.135742 774.059082 1557.307495 790.846375 1535.08252 802.034119 C 1528.952759 805.119751 1522.648315 807.85791 1515.726318 811.080322 C 1531.763306 839.606689 1547.376221 867.462158 1563.142212 895.230713 C 1564.171143 897.042664 1566.3125 899.361145 1568.042603 899.453369 C 1579.838867 900.082153 1591.666748 900.31543 1603.893433 900.249207 C 1603.893433 836.211914 1603.893433 773.605957 1603.893433 709 M 769.937317 735 C 769.937317 789.865662 769.937317 844.731384 769.937317 900.312317 C 778.996216 900.312317 786.979126 899.792419 794.861938 900.458069 C 802.793945 901.12793 807.617798 898.575195 811.402222 891.309692 C 824.3172 866.514832 837.864502 842.049683 851.107483 817.424744 C 852.144348 815.496643 852.693298 813.30603 853.722107 810.562683 C 847.970703 807.578613 842.751587 804.716675 837.401428 802.125305 C 824.316345 795.787476 813.097351 787.013611 803.514038 776.16803 C 772.119263 740.637878 773.92334 685.42749 807.52063 651.960083 C 809.719116 649.770081 812.10968 647.772827 814.410828 645.685974 C 814.219055 652.803589 813.036133 659.00293 811.163452 664.986328 C 810.088501 668.420837 808.032837 671.586487 806.181763 674.733826 C 795.515015 692.870667 793.231079 712.568237 797.232971 732.66925 C 803.034119 761.807617 821.382507 780.903809 848.50116 791.962097 C 861.669128 797.331665 865.287476 798.887756 868.791504 784.294739 C 868.86792 783.976501 869.083008 783.694153 869.189392 783.380188 C 870.442871 779.682434 873.191772 778.363159 876.898438 778.317017 C 880.572693 778.271301 883.422119 779.471924 884.912231 783.021423 C 885.812317 785.165222 886.516113 787.397278 887.5047 789.497192 C 890.798035 796.492859 892.836731 797.808655 899.922241 794.372498 C 909.450806 789.751465 919.217896 785.006409 927.49707 778.540405 C 952.590027 758.942932 974.191284 714.772827 947.61969 672.945068 C 942.269775 664.523499 940.689392 654.716553 940.328918 644.807556 C 941.292664 644.66803 941.678467 644.488098 941.940918 644.599304 C 942.537842 644.852356 943.178345 645.146973 943.620056 645.600952 C 968.873596 671.560242 980.096436 701.782776 970.492371 737.744568 C 961.811096 770.250977 939.833496 791.458679 910.485107 806.001343 C 906.779663 807.837524 903.116333 809.758789 898.651306 812.040344 C 914.796631 842.142273 930.338013 871.118286 945.984253 900.289734 C 958.129761 900.289734 969.764343 900.3078 981.398682 900.26355 C 982.6427 900.258789 983.885376 899.890991 985.185303 899.682495 C 985.185303 801.815063 985.185303 704.412842 985.185303 606.844788 C 913.306152 606.844788 842.134521 606.844788 769.937317 606.844788 C 769.937317 649.219177 769.937317 691.109558 769.937317 735 M 999.906372 675 C 999.906372 749.866089 999.906372 824.732239 999.906372 899.697144 C 1004.388 899.697144 1007.836243 899.697144 1011.212524 899.697144 C 1011.212524 801.640381 1011.212524 704.221802 1011.212524 606.811218 C 1007.291321 606.811218 1004.084595 606.811218 999.906372 606.811218 C 999.906372 629.185974 999.906372 651.092957 999.906372 675 M 743.876282 815 C 743.876282 843.201416 743.876282 871.402771 743.876282 899.757568 C 748.34967 899.757568 751.7995 899.757568 754.849365 899.757568 C 754.849365 802.1427 754.849365 705.13739 754.849365 607.600098 C 750.742188 607.176941 747.67627 606.861023 743.876282 606.469482 C 743.876282 675.947815 743.876282 744.473877 743.876282 815 M 950.999817 592.343323 C 971.197083 592.343323 991.394348 592.343323 1012.052795 592.343323 C 1011.822388 587.709961 1011.662598 584.496643 1011.483704 580.899536 C 922.1698 580.899536 833.409973 580.899536 744.572937 580.899536 C 744.572937 584.931946 744.572937 588.372009 744.572937 592.343323 C 813.15448 592.343323 881.077087 592.343323 950.999817 592.343323 M 1499.000122 580.321716 C 1453.476807 580.321716 1407.953613 580.321716 1362.285645 580.321716 C 1362.285645 584.863953 1362.285645 588.092102 1362.285645 591.254272 C 1374.631226 593.264648 1620.828613 592.731384 1628.02124 590.642029 C 1627.817871 587.508179 1627.610107 584.305725 1627.351562 580.321716 C 1584.81958 580.321716 1542.909912 580.321716 1499.000122 580.321716 M 1371.89563 609.967407 C 1370.327515 603.355713 1366.024292 607.225403 1362.549194 606.683716 C 1362.549194 705.029114 1362.549194 802.503296 1362.549194 900.606995 C 1366.053711 900.190979 1368.83728 899.860535 1371.929199 899.493469 C 1371.929199 803.07428 1371.929199 707.441345 1371.89563 609.967407 M 1627.934204 757 C 1627.934204 707.097778 1627.934204 657.195496 1627.934204 606.908997 C 1624.196045 606.908997 1621.443359 606.908997 1618.494141 606.908997 C 1618.494141 704.94989 1618.494141 802.410889 1618.494141 900.518311 C 1621.941895 900.176147 1624.723633 899.900085 1627.934204 899.581421 C 1627.934204 852.227417 1627.934204 805.613708 1627.934204 757 M 900.948975 901.690552 C 909.799622 901.372437 918.650269 901.054321 927.82605 900.724487 C 924.359497 889.025574 898.370361 841.281677 893.00824 836.146667 C 884.579407 845.266785 884.363647 846.500916 889.986206 856.872009 C 892.680542 861.841919 895.5979 866.690491 898.326294 871.642395 C 901.509399 877.419739 904.596558 883.249878 907.785034 889.167969 C 896.032471 893.377808 854.302917 892.876587 844.508118 888.201233 C 850.400452 877.7771 856.189331 867.375793 862.133789 857.06427 C 868.174927 846.584961 868.098328 845.371033 859.653748 835.618835 C 851.837158 843.576843 826.83667 891.790222 826.315063 900.872803 C 850.525574 902.220215 874.751526 901.692078 900.948975 901.690552 M 1473.124268 901.77887 C 1485.785645 901.888306 1498.446899 902.039551 1511.108521 902.095276 C 1523.512085 902.149902 1535.91626 902.107178 1549.996948 902.107178 C 1536.961182 878.574158 1524.939209 856.871216 1512.27356 834.006348 C 1509.068726 838.497742 1506.278809 842.407654 1503.515747 846.280029 C 1511.468506 861.369324 1521.001343 874.867249 1528.234253 891.458252 C 1505.98291 892.364197 1485.709473 893.408813 1464.276245 890.586609 C 1466.583496 885.43396 1467.967163 881.701538 1469.859375 878.247864 C 1474.337036 870.075317 1478.752197 861.838989 1483.793579 854.015686 C 1486.770508 849.396179 1486.994751 845.559082 1483.602783 841.368469 C 1482.048462 839.448242 1480.5979 837.444092 1478.475952 834.658081 C 1466.397217 856.686462 1454.844116 877.756348 1442.632935 900.026184 C 1453.263916 900.673706 1462.216919 901.218994 1473.124268 901.77887 M 1194.709229 899.943115 C 1199.173096 899.817566 1203.636841 899.692017 1210.253784 899.505859 C 1201.165771 888.141907 1193.494263 878.549133 1185.258667 868.250916 C 1177.11438 879.069519 1168.754028 887.810669 1162.536743 899.959412 C 1173.751343 899.959412 1183.266602 899.959412 1194.709229 899.943115 M 869.018188 817.34198 C 869.526855 823.571167 872.707214 828.455933 876.929016 833.531006 C 878.739136 830.658875 880.794739 828.377319 881.693604 825.706421 C 882.668091 822.811035 883.93866 818.434204 882.567017 816.750122 C 881.024475 814.856079 876.693176 815.059082 873.535706 814.745911 C 872.379944 814.631287 871.111572 815.651245 869.018188 817.34198 M 1497.287109 831.669373 C 1498.956787 826.547913 1503.757935 822.168152 1501.252075 815.972656 C 1496.593384 813.840149 1492.30481 813.194519 1488.298706 816.552734 C 1489.693604 826.370728 1491.05835 829.070679 1497.287109 831.669373 M 1497.015747 878.364929 C 1499.397949 878.096741 1501.780151 877.828552 1505.293213 877.433105 C 1501.592773 872.005493 1498.681274 867.735046 1494.929688 862.232361 C 1491.611328 867.879761 1488.951538 872.406311 1485.776978 877.809082 C 1490.090454 878.059143 1492.713379 878.211243 1497.015747 878.364929 M 882.930054 873.236572 C 880.812622 870.53717 878.695129 867.837769 875.585815 863.873901 C 872.479187 869.172302 870.274902 872.931824 867.151978 878.257996 C 873.474487 878.257996 878.001953 878.375916 882.504944 878.098022 C 883.026062 878.065857 883.411377 875.8349 882.930054 873.236572 z" stroke-linecap="round" />
</g>
		<g transform="matrix(1 0 0 1 0 -47.57)"  >
<path style="stroke: none; stroke-width: 1; stroke-dasharray: none; stroke-linecap: butt; stroke-dashoffset: 0; stroke-linejoin: miter; stroke-miterlimit: 4; fill: rgb(239,219,166); fill-rule: nonzero; opacity: 1;" vector-effect="non-scaling-stroke"  transform=" translate(-1185.89, -1046.45)" d="M 1449.872559 989.84729 C 1268.707397 987.216187 1088.518311 988.906555 906.909668 988.2901 C 908.460876 993.029541 909.447571 996.415161 910.66748 999.7146 C 923.358459 1034.037109 936.135071 1068.327881 948.747009 1102.679199 C 950.407104 1107.200928 951.279724 1112.011719 952.729065 1117.489746 C 948.42395 1117.757202 945.485779 1118.107544 942.54895 1118.096924 C 905.227356 1117.962036 867.905151 1117.876221 830.585022 1117.552734 C 815.191101 1117.419312 800.18158 1115.645386 786.022827 1108.426147 C 767.310547 1098.885132 753.007507 1085.181519 742.469238 1067.113525 C 734.083618 1052.736328 728.823975 1037.908936 730.050415 1020.805115 C 730.928955 1008.55188 729.905273 996.162903 729.747253 983.834229 C 729.710205 980.941956 729.741821 978.048828 729.741821 974.812622 C 1034.142456 974.812622 1337.552612 974.812622 1641.924072 974.812622 C 1641.924072 988.56189 1641.604736 1001.809326 1641.998047 1015.035583 C 1642.598877 1035.238647 1638.435669 1054.035522 1627.231934 1071.074585 C 1613.317505 1092.236084 1593.957397 1106.363037 1570.114746 1114.09314 C 1562.970825 1116.40918 1555.047241 1117.069092 1547.464966 1117.15918 C 1506.817139 1117.643433 1466.164185 1117.722168 1425.512939 1117.879883 C 1423.286865 1117.88855 1421.058716 1117.348999 1417.408936 1116.882935 C 1433.065918 1074.810059 1448.44104 1033.494751 1463.932495 991.866943 C 1459.338867 988.942383 1454.934082 990.376282 1449.872559 989.84729 M 1602.456055 1019.652954 C 1607.004883 1024.668579 1613.355469 1028.251831 1615.368774 1035.159424 C 1611.653198 1039.754028 1607.535522 1040.692505 1601.946411 1040.43335 C 1588.161987 1039.794312 1574.32251 1040.34375 1560.524292 1040.415283 C 1560.738525 1050.372314 1561.163574 1051.700317 1567.7052 1051.667358 C 1583.94519 1051.585571 1600.182861 1050.803467 1616.418335 1050.215698 C 1620.479614 1050.068726 1623.346313 1048.033447 1624.391357 1043.955444 C 1626.835083 1034.418945 1628.523071 1024.810303 1627.647705 1014.690247 C 1618.52771 1014.690247 1610.278687 1014.690247 1600.185059 1014.316528 C 1576.908081 1014.298706 1553.629272 1014.102966 1530.354492 1014.32019 C 1512.405029 1014.487671 1494.460938 1015.194336 1476.513306 1015.614197 C 1472.232544 1015.714355 1468.385986 1016.093323 1469.774536 1023.088745 C 1472.72998 1023.410522 1475.90332 1023.967407 1479.09021 1024.060913 C 1486.733643 1024.285278 1494.383667 1024.381836 1502.030762 1024.370239 C 1528.964966 1024.329102 1555.899414 1024.255859 1582.833252 1024.106079 C 1587.766724 1024.078613 1592.865234 1024.421387 1595.843384 1018.797302 C 1596.317017 1017.902771 1599.734741 1018.567078 1602.456055 1019.652954 M 1473.047729 1076.272095 C 1500.346802 1076.102295 1527.646118 1075.963501 1554.944702 1075.730713 C 1559.263062 1075.693848 1563.676636 1075.696045 1567.859619 1074.80481 C 1570.666626 1074.206665 1573.144409 1072.063599 1575.769409 1070.611938 C 1575.592163 1069.748657 1575.414795 1068.885254 1575.237549 1068.021973 C 1569.796143 1067.498291 1564.360474 1066.598511 1558.912476 1066.516602 C 1536.277466 1066.175781 1513.637817 1066.151001 1491.002563 1065.821533 C 1487.632202 1065.772461 1483.747559 1066.790771 1480.836426 1063.555664 C 1484.047241 1055.653809 1489.558838 1051.980347 1497.905884 1052.038086 C 1510.555176 1052.125854 1523.207153 1051.912354 1535.856934 1051.741699 C 1538.729126 1051.703003 1541.596558 1051.315552 1545.092407 1051.039062 C 1545.334717 1047.296997 1545.535767 1044.192749 1545.792114 1040.234619 C 1516.998413 1040.728516 1489.125488 1039.177246 1461.139038 1042.007935 C 1456.673706 1053.023315 1451.955566 1063.393921 1448.536011 1076.217407 C 1457.216919 1076.217407 1464.14209 1076.217407 1473.047729 1076.272095 M 857.77301 1039.953003 C 849.057983 1042.113892 849.000854 1042.221191 851.317627 1052.032837 C 859.283936 1052.032837 867.264404 1052.399536 875.195923 1051.933716 C 883.803162 1051.428223 888.658325 1055.774414 892.919434 1063.992676 C 886.85907 1064.623779 881.72168 1065.532959 876.56897 1065.629761 C 855.587646 1066.02356 834.599609 1066.065063 813.618652 1066.472656 C 807.840698 1066.584961 802.078674 1067.516724 796.309326 1068.07251 C 796.117188 1068.944214 795.925049 1069.815796 795.73291 1070.687378 C 798.005493 1072.077271 800.121765 1074.033691 802.589905 1074.715088 C 805.744202 1075.585571 809.181396 1075.661011 812.498535 1075.676758 C 846.140442 1075.83606 879.782776 1075.932007 913.425049 1075.979614 C 916.297546 1075.983765 919.170715 1075.513672 923.445862 1075.141968 C 919.089783 1063.153931 915.057678 1052.057617 910.615784 1039.833252 C 893.505676 1039.833252 876.572388 1039.833252 857.77301 1039.953003 M 818.806152 1040.294189 C 804.482178 1040.08667 790.153931 1040.021484 775.836365 1039.597656 C 770.5354 1039.440796 765.19928 1038.744019 759.994019 1037.713745 C 756.790405 1037.07959 754.485901 1034.833984 756.389893 1031.104492 C 758.64209 1026.692993 770.339294 1021.746582 775.505432 1022.51123 C 782.397461 1023.531372 789.310669 1024.588501 796.253174 1025.04187 C 805.073059 1025.61792 806.071289 1024.166382 804.578918 1014.290283 C 794.706055 1014.290283 784.739014 1014.261353 774.772278 1014.298157 C 764.60791 1014.335693 754.443787 1014.437866 744.278625 1014.511719 C 744.278625 1020.860779 743.877563 1025.880249 744.351685 1030.815674 C 745.957581 1047.531616 748.985901 1050.335083 765.858154 1051.626831 C 767.849915 1051.779297 769.852051 1051.868164 771.849304 1051.865967 C 791.170959 1051.84436 810.492676 1051.813477 829.814148 1051.725586 C 831.369568 1051.718506 832.923096 1051.270264 835.14502 1050.922729 C 835.322083 1047.385498 835.475708 1044.316162 835.676331 1040.307373 C 829.983276 1040.307373 825.358215 1040.307373 818.806152 1040.294189 M 1620.575073 1000.039185 C 1623.076782 999.725891 1625.578491 999.412598 1628.826172 999.00592 C 1628.240723 995.129395 1627.770996 992.018433 1627.264771 988.66626 C 1578.048828 988.66626 1529.606812 988.66626 1480.471924 988.66626 C 1479.609497 992.004211 1478.765991 995.269043 1477.838257 998.860413 C 1480.482788 999.278015 1481.777832 999.65741 1483.074219 999.661804 C 1528.271606 999.817017 1573.468994 999.936829 1620.575073 1000.039185 M 785.000488 988.309204 C 771.455811 988.309204 757.911194 988.309204 744.291626 988.309204 C 744.291626 992.906982 744.291626 996.133911 744.291626 999.292969 C 759.993591 1001.754089 883.480042 1000.689941 892.541992 997.885132 C 892.130798 995.534119 891.70459 993.096741 891.152649 989.940857 C 856.204834 987.201111 821.579834 988.719543 785.000488 988.309204 M 855.149048 1104.344482 C 880.775574 1104.344482 906.402039 1104.344482 933.279663 1104.344482 C 931.934326 1099.375366 930.847351 1095.360474 929.646606 1090.925293 C 900.27417 1090.925293 871.440857 1090.925293 842.604248 1090.925293 C 842.604248 1095.651489 842.604248 1099.756836 842.604248 1104.344482 C 846.598511 1104.344482 849.897827 1104.344482 855.149048 1104.344482 M 1461.080688 1104.200928 C 1483.215088 1104.200928 1505.349487 1104.200928 1527.460327 1104.200928 C 1527.460327 1099.100342 1527.460327 1095.237671 1527.460327 1090.853027 C 1498.912842 1090.853027 1470.824829 1090.853027 1442.37915 1090.853027 C 1440.876587 1094.549194 1439.42749 1098.114014 1437.292969 1103.364502 C 1445.483154 1103.673096 1452.300049 1103.92981 1461.080688 1104.200928 M 864.992188 1014.259644 C 850.140808 1014.259644 835.289429 1014.259644 820.489563 1014.259644 C 820.2547 1024.745728 820.846985 1025.896362 829.046204 1025.767578 C 852.948792 1025.392456 876.845703 1024.645996 900.742798 1023.973999 C 901.540283 1023.951599 902.316345 1023.163696 902.930481 1022.826904 C 903.445862 1016.556458 899.559631 1015.040039 894.869019 1014.86322 C 885.580627 1014.513062 876.281677 1014.44458 864.992188 1014.259644 M 789.434692 1083.822266 C 787.053711 1080.242798 784.909851 1076.471069 782.213257 1073.147827 C 780.22168 1070.693237 777.823547 1067.719971 775.050659 1066.93103 C 769.847046 1065.450073 764.243225 1065.424072 758.373657 1066.637573 C 771.943787 1088.114868 803.050171 1104.911743 827.342529 1102.467651 C 827.510132 1099.185791 827.685852 1095.746094 827.920044 1091.161499 C 822.157715 1090.832397 817.304016 1090.41333 812.443665 1090.309937 C 804.715515 1090.145264 797.114319 1089.664062 789.434692 1083.822266 M 1588.987671 1075.578979 C 1581.737915 1086.271851 1570.705933 1089.204956 1558.786743 1090.119019 C 1553.305176 1090.539429 1547.791382 1090.537842 1542.526489 1090.719482 C 1542.526489 1095.298218 1542.526489 1098.799316 1542.526489 1102.268677 C 1572.13208 1103.770386 1593.416016 1089.941528 1611.913208 1068.749268 C 1598.206787 1064.05835 1593.760376 1065.289795 1588.987671 1075.578979 z" stroke-linecap="round" />
</g>
		<g transform="matrix(1 0 0 1 0.01 50.5)"  >
<path style="stroke: none; stroke-width: 1; stroke-dasharray: none; stroke-linecap: butt; stroke-dashoffset: 0; stroke-linejoin: miter; stroke-miterlimit: 4; fill: rgb(239,219,166); fill-rule: nonzero; opacity: 1;" vector-effect="non-scaling-stroke"  transform=" translate(-1185.91, -1144.53)" d="M 1330.879395 1035.793945 C 1350.776123 1037.957275 1369.841309 1039.971313 1389.474121 1042.045288 C 1389.474121 1057.215332 1389.474121 1073.090088 1389.474121 1090.37915 C 1381.394897 1090.37915 1373.129639 1091.202148 1365.090088 1090.205688 C 1348.924683 1088.202026 1337.32019 1093.704834 1326.010132 1105.81189 C 1302.077637 1131.43103 1270.678711 1144.344849 1236.94812 1151.949341 C 1234.027588 1152.607788 1231.106079 1153.262573 1228.192261 1153.949829 C 1227.237549 1154.175049 1226.30542 1154.496826 1224.585815 1155.003418 C 1222.437134 1167.081909 1220.451172 1179.489258 1217.988892 1191.801392 C 1214.141357 1211.041382 1210.240723 1230.278809 1205.850952 1249.39978 C 1202.449219 1264.217285 1194.077515 1276.091187 1181.90979 1285.154663 C 1177.074951 1288.756226 1171.816162 1291.638428 1163.953735 1289.19751 C 1162.768066 1279.3927 1161.64856 1269.25 1160.29895 1259.137939 C 1156.117188 1227.807129 1151.966919 1196.471069 1147.548096 1165.17334 C 1146 1154.20752 1145.162842 1154.161987 1133.736328 1151.699829 C 1095.247803 1143.406982 1061.611572 1126.520996 1036.438965 1095.284424 C 1033.617065 1091.782715 1030.755859 1090.361084 1026.353027 1090.42395 C 1011.749207 1090.632812 997.140625 1090.50293 982.33606 1090.50293 C 982.33606 1073.676392 982.33606 1057.809692 982.33606 1041.222778 C 987.005981 1040.874634 991.269043 1040.268188 995.52948 1040.286011 C 1023.531311 1040.402588 1050.152466 1034.215332 1076.388428 1024.623535 C 1098.206177 1016.647095 1120.437988 1009.424316 1142.986572 1003.915527 C 1175.277222 996.026489 1207.865356 997.875488 1239.705566 1007.150879 C 1263.950195 1014.213501 1287.796143 1022.640503 1311.847778 1030.372192 C 1317.858276 1032.304321 1323.978149 1033.896362 1330.879395 1035.793945 M 1157.258911 1124.07959 C 1131.127686 1111.696045 1121.048218 1088.621094 1117.103271 1060.36084 C 1094.728149 1071.776123 1071.943604 1077.748657 1050.494629 1087.484985 C 1051.588135 1089.617554 1051.87915 1090.636597 1052.512085 1091.35376 C 1075.985229 1117.946899 1105.725464 1133.905518 1140.560913 1137.539307 C 1165.915771 1140.184204 1191.738403 1138.742432 1217.345825 1138.475586 C 1256.722778 1138.06543 1288.913208 1120.325073 1317.905029 1095.420532 C 1320.055298 1093.573608 1321.771851 1091.22168 1324.400269 1088.320435 C 1299.971802 1078.914917 1276.65564 1069.937622 1252.731079 1060.726074 C 1252.268066 1064.543823 1251.94458 1066.834229 1251.718262 1069.134277 C 1247.556274 1111.429932 1206.380737 1143.866699 1157.258911 1124.07959 M 1160.645752 1015.453064 C 1154.108521 1016.665344 1147.376953 1017.24884 1141.067871 1019.19928 C 1114.381958 1027.449219 1087.919922 1036.432495 1061.17041 1044.462891 C 1049.450073 1047.981445 1037.306519 1050.261353 1025.224976 1052.350708 C 1015.777039 1053.984619 1006.128357 1054.457275 996.510254 1055.451782 C 996.510254 1062.653076 996.510254 1069.148438 996.510254 1075.695923 C 1021.428467 1078.407227 1044.735962 1074.036255 1067.391113 1065.380249 C 1085.103149 1058.612915 1102.612671 1051.288208 1120.465698 1044.922607 C 1164.755005 1029.130737 1209.132935 1028.927979 1253.278198 1045.645752 C 1271.629761 1052.595459 1289.792236 1060.043335 1308.084595 1067.151855 C 1329.576904 1075.504028 1352.072998 1076.601196 1375.15918 1076.485962 C 1375.15918 1069.038818 1375.15918 1061.985352 1375.15918 1054.059082 C 1350.396851 1055.97522 1327.598633 1050.019287 1305.020752 1042.808228 C 1284.114014 1036.130859 1263.270142 1029.248413 1242.287231 1022.819641 C 1216.222168 1014.833618 1189.659058 1011.241211 1160.645752 1015.453064 M 1215.73938 1073.357178 C 1212.473145 1077.917725 1209.767456 1083.049316 1205.824463 1086.920288 C 1197.550659 1095.042847 1180.102539 1097.353882 1171.373413 1091.559448 C 1160.918945 1084.619751 1153.82666 1075.363525 1153.886841 1061.977661 C 1153.902466 1058.498535 1153.362793 1055.016968 1153.080811 1051.569702 C 1134.391357 1053.482178 1132.806274 1056.664429 1134.760254 1074.190552 C 1134.796631 1074.517578 1134.942627 1074.830688 1135.01416 1075.155396 C 1140.211182 1098.755127 1162.165649 1116.313232 1186.252319 1116.130615 C 1210.212036 1115.948975 1230.935669 1098.257324 1236.081421 1073.591675 C 1239.789673 1055.816406 1238.353638 1053.811035 1220.009521 1051.315552 C 1219.49292 1051.245239 1218.887817 1051.825439 1217.542358 1052.486084 C 1217.075439 1058.592407 1216.573608 1065.154419 1215.73938 1073.357178 M 1205.339233 1178.2677 C 1205.826294 1170.528809 1208.71106 1162.930176 1207.543579 1154.456909 C 1191.91626 1154.790649 1177.123413 1154.336548 1162.589478 1156.44165 C 1162.276245 1168.874146 1175.967163 1264.14978 1178.868042 1269.854736 C 1186.744751 1260.63562 1191.2854 1250.075562 1193.627197 1238.63916 C 1197.622925 1219.124634 1201.169434 1199.517944 1205.339233 1178.2677 z" stroke-linecap="round" />
</g>
		<g transform="matrix(1 0 0 1 -199.21 -138.93)"  >
<path style="stroke: none; stroke-width: 1; stroke-dasharray: none; stroke-linecap: butt; stroke-dashoffset: 0; stroke-linejoin: miter; stroke-miterlimit: 4; fill: rgb(234,214,162); fill-rule: nonzero; opacity: 1;" vector-effect="non-scaling-stroke"  transform=" translate(-986.68, -955.1)" d="M 976 962.066406 C 944.040466 962.064819 913.080872 962.064819 881.058533 962.064819 C 880.57312 957.548584 880.164246 953.744019 879.76416 950.021973 C 887.104309 947.853088 1082.658203 947.409119 1093.604004 949.461853 C 1093.604004 953.294434 1093.604004 957.201416 1093.604004 962.068054 C 1054.641479 962.068054 1015.82074 962.068054 976 962.066406 z" stroke-linecap="round" />
</g>
		<g transform="matrix(1 0 0 1 196.24 -138.82)"  >
<path style="stroke: none; stroke-width: 1; stroke-dasharray: none; stroke-linecap: butt; stroke-dashoffset: 0; stroke-linejoin: miter; stroke-miterlimit: 4; fill: rgb(232,213,161); fill-rule: nonzero; opacity: 1;" vector-effect="non-scaling-stroke"  transform=" translate(-1382.13, -955.21)" d="M 1482.770996 961.592163 C 1413.133911 961.648438 1344.368042 961.648438 1274.826538 961.648438 C 1274.435303 956.998291 1274.114136 953.182312 1273.743286 948.773926 C 1345.948486 948.773926 1417.361206 948.773926 1488.770142 948.773926 C 1491.713989 959.438843 1491.713989 959.438843 1482.770996 961.592163 z" stroke-linecap="round" />
</g>
		<g transform="matrix(1 0 0 1 -0.92 -138.43)"  >
<path style="stroke: none; stroke-width: 1; stroke-dasharray: none; stroke-linecap: butt; stroke-dashoffset: 0; stroke-linejoin: miter; stroke-miterlimit: 4; fill: rgb(238,218,165); fill-rule: nonzero; opacity: 1;" vector-effect="non-scaling-stroke"  transform=" translate(-1184.97, -955.6)" d="M 1257.137207 962.385132 C 1205.696289 962.385193 1155.174194 962.385193 1104.388916 962.385193 C 1104.388916 957.484863 1104.388916 953.319824 1104.388916 948.809814 C 1158.320801 948.809814 1211.724243 948.809814 1265.546997 948.809814 C 1265.546997 953.221741 1265.546997 957.110962 1265.546997 961.759277 C 1263.059814 961.967102 1260.558105 962.176086 1257.137207 962.385132 z" stroke-linecap="round" />
</g>
		<g transform="matrix(1 0 0 1 -262.05 205.65)"  >
<path style="stroke: none; stroke-width: 1; stroke-dasharray: none; stroke-linecap: butt; stroke-dashoffset: 0; stroke-linejoin: miter; stroke-miterlimit: 4; fill: rgb(229,210,159); fill-rule: nonzero; opacity: 1;" vector-effect="non-scaling-stroke"  transform=" translate(-923.85, -1299.68)" d="M 931.208984 1293.288574 C 932.36615 1296.006836 933.610657 1298.172363 933.609009 1300.337158 C 933.605286 1305.316406 929.915283 1309.546021 925.505249 1310.203857 C 921.129639 1310.856323 917.783508 1309.274048 915.594055 1305.321289 C 912.946533 1300.541748 913.798889 1295.789551 917.966492 1291.945557 C 921.615051 1288.5802 925.286133 1287.69397 929.204102 1291.472656 C 929.677979 1291.929565 930.219849 1292.316284 931.208984 1293.288574 z" stroke-linecap="round" />
</g>
		<g transform="matrix(1 0 0 1 -285.99 230.35)"  >
<path style="stroke: none; stroke-width: 1; stroke-dasharray: none; stroke-linecap: butt; stroke-dashoffset: 0; stroke-linejoin: miter; stroke-miterlimit: 4; fill: rgb(229,210,159); fill-rule: nonzero; opacity: 1;" vector-effect="non-scaling-stroke"  transform=" translate(-899.91, -1324.38)" d="M 894.154846 1332.144897 C 892.773804 1330.565918 891.746521 1329.609619 891.270874 1328.430664 C 888.645813 1321.924683 890.171448 1317.101562 895.287292 1315.265991 C 900.127808 1313.529419 907.327332 1316.842773 909.308411 1321.718994 C 911.150024 1326.251831 907.666687 1332.782715 902.251221 1333.857666 C 899.925781 1334.319214 897.269287 1333.113159 894.154846 1332.144897 z" stroke-linecap="round" />
</g>
		<g transform="matrix(1 0 0 1 -303.99 156.66)"  >
<path style="stroke: none; stroke-width: 1; stroke-dasharray: none; stroke-linecap: butt; stroke-dashoffset: 0; stroke-linejoin: miter; stroke-miterlimit: 4; fill: rgb(229,210,159); fill-rule: nonzero; opacity: 1;" vector-effect="non-scaling-stroke"  transform=" translate(-881.9, -1250.69)" d="M 889.380859 1257.082275 C 886.578369 1258.712769 884.323181 1260.384155 881.881042 1260.727905 C 877.503662 1261.343994 873.607483 1258.101807 872.450439 1253.71936 C 871.253113 1249.184326 874.03009 1243.996216 878.747925 1241.535156 C 883.323853 1239.148071 886.335876 1241.568481 888.886047 1244.8125 C 891.70575 1248.399536 893.072388 1252.334351 889.380859 1257.082275 z" stroke-linecap="round" />
</g>
		<g transform="matrix(1 0 0 1 -216.18 170.47)"  >
<path style="stroke: none; stroke-width: 1; stroke-dasharray: none; stroke-linecap: butt; stroke-dashoffset: 0; stroke-linejoin: miter; stroke-miterlimit: 4; fill: rgb(229,210,159); fill-rule: nonzero; opacity: 1;" vector-effect="non-scaling-stroke"  transform=" translate(-969.71, -1264.5)" d="M 977.412354 1258.985596 C 980.86554 1267.574585 979.435242 1272.2677 973.275391 1273.778687 C 968.801392 1274.876221 964.668945 1274.170532 961.837097 1269.974487 C 959.230225 1266.111938 959.708557 1261.996338 963.190613 1258.207886 C 966.546631 1254.556641 970.306396 1253.507568 974.642151 1256.497559 C 975.458252 1257.060303 976.178772 1257.761841 977.412354 1258.985596 z" stroke-linecap="round" />
</g>
		<g transform="matrix(1 0 0 1 -331.97 258.9)"  >
<path style="stroke: none; stroke-width: 1; stroke-dasharray: none; stroke-linecap: butt; stroke-dashoffset: 0; stroke-linejoin: miter; stroke-miterlimit: 4; fill: rgb(232,213,161); fill-rule: nonzero; opacity: 1;" vector-effect="non-scaling-stroke"  transform=" translate(-853.93, -1352.93)" d="M 848.001953 1344.366699 C 851.487732 1343.910156 854.564697 1343.08667 857.091858 1343.923584 C 860.997375 1345.216797 863.731567 1348.360229 863.691772 1352.836914 C 863.656616 1356.793823 858.991882 1361.286621 854.592407 1362.077026 C 848.398254 1363.189819 843.930969 1359.933838 844.170166 1353.649048 C 844.284546 1350.644653 846.230408 1347.710083 848.001953 1344.366699 z" stroke-linecap="round" />
</g>
		<g transform="matrix(1 0 0 1 -365.71 177.42)"  >
<path style="stroke: none; stroke-width: 1; stroke-dasharray: none; stroke-linecap: butt; stroke-dashoffset: 0; stroke-linejoin: miter; stroke-miterlimit: 4; fill: rgb(232,213,161); fill-rule: nonzero; opacity: 1;" vector-effect="non-scaling-stroke"  transform=" translate(-820.19, -1271.45)" d="M 810.576294 1268.718384 C 812.385498 1266.336792 813.672241 1264.157227 815.579651 1263.130371 C 820.734436 1260.355225 826.890015 1262.545288 829.142883 1267.520264 C 831.088989 1271.817749 828.519409 1277.677856 823.689941 1279.955688 C 818.731689 1282.294189 813.89093 1280.591553 811.302917 1275.225708 C 810.488281 1273.536743 810.631897 1271.38562 810.576294 1268.718384 z" stroke-linecap="round" />
</g>
		<g transform="matrix(1 0 0 1 262.18 205.21)"  >
<path style="stroke: none; stroke-width: 1; stroke-dasharray: none; stroke-linecap: butt; stroke-dashoffset: 0; stroke-linejoin: miter; stroke-miterlimit: 4; fill: rgb(232,213,161); fill-rule: nonzero; opacity: 1;" vector-effect="non-scaling-stroke"  transform=" translate(-1448.07, -1299.24)" d="M 1443.611572 1308.81604 C 1441.710449 1306.871948 1440.066162 1305.569214 1439.232422 1303.868774 C 1436.715576 1298.735107 1439.110718 1292.269409 1444.224854 1289.634399 C 1448.113403 1287.630981 1454.649658 1290.884888 1456.991211 1295.98999 C 1459.294922 1301.012573 1457.182129 1306.984497 1451.804688 1309.026733 C 1449.573242 1309.87439 1446.777832 1309.237427 1443.611572 1308.81604 z" stroke-linecap="round" />
</g>
		<g transform="matrix(1 0 0 1 303.99 157.32)"  >
<path style="stroke: none; stroke-width: 1; stroke-dasharray: none; stroke-linecap: butt; stroke-dashoffset: 0; stroke-linejoin: miter; stroke-miterlimit: 4; fill: rgb(232,213,161); fill-rule: nonzero; opacity: 1;" vector-effect="non-scaling-stroke"  transform=" translate(-1489.88, -1251.35)" d="M 1491.543945 1240.776123 C 1500.40918 1246.430176 1501.833618 1251.846069 1496.684326 1257.804321 C 1493.132324 1261.914185 1488.771851 1263.055298 1485.385498 1260.760864 C 1480.414795 1257.3927 1478.699951 1251.684326 1481.340454 1246.872314 C 1483.380615 1243.154541 1486.401001 1240.76709 1491.543945 1240.776123 z" stroke-linecap="round" />
</g>
		<g transform="matrix(1 0 0 1 286.05 230.53)"  >
<path style="stroke: none; stroke-width: 1; stroke-dasharray: none; stroke-linecap: butt; stroke-dashoffset: 0; stroke-linejoin: miter; stroke-miterlimit: 4; fill: rgb(229,210,159); fill-rule: nonzero; opacity: 1;" vector-effect="non-scaling-stroke"  transform=" translate(-1471.94, -1324.56)" d="M 1466.422485 1316.499756 C 1467.942627 1315.661987 1468.825073 1315.033813 1469.767944 1314.92395 C 1475.474731 1314.259277 1479.16394 1316.183594 1481.016724 1320.640869 C 1482.737549 1324.78064 1481.133179 1331.005981 1477.48645 1333.010986 C 1473.260986 1335.333984 1469.103882 1334.390259 1465.474609 1331.557495 C 1461.641357 1328.565674 1461.213745 1324.629761 1463.876099 1319.17041 C 1464.291748 1318.317993 1465.156006 1317.684082 1466.422485 1316.499756 z" stroke-linecap="round" />
</g>
		<g transform="matrix(1 0 0 1 366.17 176.91)"  >
<path style="stroke: none; stroke-width: 1; stroke-dasharray: none; stroke-linecap: butt; stroke-dashoffset: 0; stroke-linejoin: miter; stroke-miterlimit: 4; fill: rgb(229,210,159); fill-rule: nonzero; opacity: 1;" vector-effect="non-scaling-stroke"  transform=" translate(-1552.06, -1270.94)" d="M 1544.183716 1264.649902 C 1547.612671 1263.166626 1550.806641 1261.270752 1553.643921 1261.7052 C 1559.037354 1262.531372 1562.741089 1268.954468 1561.64917 1273.828247 C 1560.55249 1278.722168 1555.812378 1281.144165 1549.712158 1279.927612 C 1543.921509 1278.772827 1541.679321 1275.518555 1542.410522 1269.014893 C 1542.554077 1267.737793 1543.312744 1266.529663 1544.183716 1264.649902 z" stroke-linecap="round" />
</g>
		<g transform="matrix(1 0 0 1 215.8 170.87)"  >
<path style="stroke: none; stroke-width: 1; stroke-dasharray: none; stroke-linecap: butt; stroke-dashoffset: 0; stroke-linejoin: miter; stroke-miterlimit: 4; fill: rgb(232,213,161); fill-rule: nonzero; opacity: 1;" vector-effect="non-scaling-stroke"  transform=" translate(-1401.69, -1264.9)" d="M 1405.908081 1256.009033 C 1412.118286 1262.967773 1412.708252 1265.601807 1409.449341 1270.050171 C 1406.617676 1273.915283 1402.73877 1275.385864 1398.145874 1274.099854 C 1393.715698 1272.859375 1392.041748 1269.425659 1391.988647 1265.053955 C 1391.930664 1260.28833 1393.594482 1256.502808 1398.602173 1255.413574 C 1400.702026 1254.956665 1403.031372 1255.55542 1405.908081 1256.009033 z" stroke-linecap="round" />
</g>
		<g transform="matrix(1 0 0 1 334.03 258.44)"  >
<path style="stroke: none; stroke-width: 1; stroke-dasharray: none; stroke-linecap: butt; stroke-dashoffset: 0; stroke-linejoin: miter; stroke-miterlimit: 4; fill: rgb(229,210,159); fill-rule: nonzero; opacity: 1;" vector-effect="non-scaling-stroke"  transform=" translate(-1519.92, -1352.46)" d="M 1529.654785 1353.615601 C 1528.102051 1356.181763 1527.004639 1358.320801 1525.318726 1359.779785 C 1521.130981 1363.404541 1516.505859 1363.150879 1513.040527 1359.48877 C 1509.385376 1355.625977 1509.234863 1350.000732 1512.68042 1346.033691 C 1516.179688 1342.005249 1520.682129 1341.273438 1524.781494 1344.928467 C 1527.03772 1346.940186 1528.191528 1350.188354 1529.654785 1353.615601 z" stroke-linecap="round" />
</g>
		<g transform="matrix(1 0 0 1 91.67 376.37)"  >
<path style="stroke: none; stroke-width: 1; stroke-dasharray: none; stroke-linecap: butt; stroke-dashoffset: 0; stroke-linejoin: miter; stroke-miterlimit: 4; fill: rgb(229,210,159); fill-rule: nonzero; opacity: 1;" vector-effect="non-scaling-stroke"  transform=" translate(-1277.57, -1470.4)" d="M 1287.290771 1468.864502 C 1287.731934 1475.563354 1284.567993 1478.919678 1278.949341 1479.952026 C 1274.347656 1480.797485 1269.892822 1478.263916 1268.549316 1474.084595 C 1267.261108 1470.077515 1267.389771 1466.141113 1270.927734 1463.102783 C 1274.385376 1460.133179 1279.165649 1459.794922 1282.865479 1462.701904 C 1284.610718 1464.073242 1285.675293 1466.310547 1287.290771 1468.864502 z" stroke-linecap="round" />
</g>
		<g transform="matrix(1 0 0 1 114.42 421.98)"  >
<path style="stroke: none; stroke-width: 1; stroke-dasharray: none; stroke-linecap: butt; stroke-dashoffset: 0; stroke-linejoin: miter; stroke-miterlimit: 4; fill: rgb(229,210,159); fill-rule: nonzero; opacity: 1;" vector-effect="non-scaling-stroke"  transform=" translate(-1300.31, -1516.01)" d="M 1290.803711 1511.185547 C 1293.068481 1509.265869 1294.812622 1507.529297 1296.891235 1506.903198 C 1302.107422 1505.33252 1307.677734 1507.942993 1309.44043 1512.304077 C 1311.290405 1516.880859 1308.147583 1522.770508 1302.624634 1525.077148 C 1298.852051 1526.65271 1293.482056 1524.330322 1291.331543 1519.517212 C 1290.332764 1517.282349 1290.691772 1514.440796 1290.803711 1511.185547 z" stroke-linecap="round" />
</g>
		<g transform="matrix(1 0 0 1 67.89 444.4)"  >
<path style="stroke: none; stroke-width: 1; stroke-dasharray: none; stroke-linecap: butt; stroke-dashoffset: 0; stroke-linejoin: miter; stroke-miterlimit: 4; fill: rgb(229,210,159); fill-rule: nonzero; opacity: 1;" vector-effect="non-scaling-stroke"  transform=" translate(-1253.78, -1538.43)" d="M 1263.460938 1536.69043 C 1261.001831 1548.307617 1254.239014 1551.506348 1247.466187 1545.071167 C 1243.297363 1541.109985 1243.013672 1537.296997 1246.563843 1532.946655 C 1250.428345 1528.21106 1255.208374 1527.100098 1259.390381 1530.432983 C 1261.08313 1531.782104 1262.015503 1534.085205 1263.460938 1536.69043 z" stroke-linecap="round" />
</g>
		<g transform="matrix(1 0 0 1 -113.38 422.23)"  >
<path style="stroke: none; stroke-width: 1; stroke-dasharray: none; stroke-linecap: butt; stroke-dashoffset: 0; stroke-linejoin: miter; stroke-miterlimit: 4; fill: rgb(232,213,161); fill-rule: nonzero; opacity: 1;" vector-effect="non-scaling-stroke"  transform=" translate(-1072.51, -1516.26)" d="M 1062.787231 1511.251709 C 1066.0448 1506.607056 1069.929565 1505.606201 1074.477539 1506.942383 C 1078.945923 1508.255127 1082.109985 1510.842651 1082.225586 1515.914917 C 1082.338501 1520.868408 1079.620972 1523.985718 1075.200073 1525.528564 C 1070.469849 1527.179565 1066.452637 1525.286865 1064.254639 1521.228027 C 1062.821655 1518.581909 1062.985229 1515.071045 1062.787231 1511.251709 z" stroke-linecap="round" />
</g>
		<g transform="matrix(1 0 0 1 -93.57 376.7)"  >
<path style="stroke: none; stroke-width: 1; stroke-dasharray: none; stroke-linecap: butt; stroke-dashoffset: 0; stroke-linejoin: miter; stroke-miterlimit: 4; fill: rgb(229,210,159); fill-rule: nonzero; opacity: 1;" vector-effect="non-scaling-stroke"  transform=" translate(-1092.32, -1470.73)" d="M 1085.666016 1463.697632 C 1092.698242 1460.168823 1097.103394 1460.646973 1100.073242 1464.686157 C 1102.750488 1468.327393 1102.606201 1474.435181 1099.626709 1477.575806 C 1096.362183 1481.016724 1092.5625 1480.57605 1088.744629 1478.669434 C 1084.105103 1476.352173 1081.817017 1472.038574 1082.945068 1467.461548 C 1083.238281 1466.271484 1084.386475 1465.291992 1085.666016 1463.697632 z" stroke-linecap="round" />
</g>
		<g transform="matrix(1 0 0 1 -67.54 444.49)"  >
<path style="stroke: none; stroke-width: 1; stroke-dasharray: none; stroke-linecap: butt; stroke-dashoffset: 0; stroke-linejoin: miter; stroke-miterlimit: 4; fill: rgb(232,213,161); fill-rule: nonzero; opacity: 1;" vector-effect="non-scaling-stroke"  transform=" translate(-1118.36, -1538.52)" d="M 1108.394287 1541.740967 C 1109.328735 1538.306274 1109.939941 1535.253662 1111.645996 1533.047729 C 1114.081909 1529.898315 1117.217529 1527.252197 1121.864868 1529.548828 C 1126.352295 1531.766479 1128.990356 1536.305298 1128.166992 1540.794434 C 1127.385498 1545.055054 1123.837769 1547.985962 1118.9552 1548.321533 C 1114.242065 1548.645386 1110.473022 1547.212769 1108.394287 1541.740967 z" stroke-linecap="round" />
</g>
		<g transform="matrix(1 0 0 1 -202.51 254.33)"  >
<path style="stroke: none; stroke-width: 1; stroke-dasharray: none; stroke-linecap: butt; stroke-dashoffset: 0; stroke-linejoin: miter; stroke-miterlimit: 4; fill: rgb(232,213,161); fill-rule: nonzero; opacity: 1;" vector-effect="non-scaling-stroke"  transform=" translate(-983.38, -1348.36)" d="M 982.184204 1357.807129 C 977.640625 1356.986206 974.530029 1355.302124 973.621521 1351.177368 C 972.709106 1347.035034 973.126282 1342.727905 976.907837 1340.555298 C 979.399597 1339.123657 983.885193 1338.234741 985.887085 1339.540894 C 989.162598 1341.678345 991.44397 1345.631836 993.456909 1349.206421 C 993.960938 1350.101685 992.245056 1353.030029 990.841431 1354.040161 C 988.509155 1355.718262 985.604004 1356.600098 982.184204 1357.807129 z" stroke-linecap="round" />
</g>
		<g transform="matrix(1 0 0 1 -280.19 334.75)"  >
<path style="stroke: none; stroke-width: 1; stroke-dasharray: none; stroke-linecap: butt; stroke-dashoffset: 0; stroke-linejoin: miter; stroke-miterlimit: 4; fill: rgb(232,213,161); fill-rule: nonzero; opacity: 1;" vector-effect="non-scaling-stroke"  transform=" translate(-905.7, -1428.78)" d="M 901.488525 1419.76001 C 908.026917 1417.298218 911.704346 1420.117188 914.332397 1424.938599 C 916.351318 1428.642578 915.132996 1432.049438 912.647949 1435.028442 C 909.765259 1438.484131 905.509216 1439.818604 901.960266 1437.667847 C 899.301086 1436.056274 897.306152 1432.345215 896.361572 1429.168579 C 895.249207 1425.427856 897.237488 1422.085205 901.488525 1419.76001 z" stroke-linecap="round" />
</g>
		<g transform="matrix(1 0 0 1 -244.41 295.74)"  >
<path style="stroke: none; stroke-width: 1; stroke-dasharray: none; stroke-linecap: butt; stroke-dashoffset: 0; stroke-linejoin: miter; stroke-miterlimit: 4; fill: rgb(229,210,159); fill-rule: nonzero; opacity: 1;" vector-effect="non-scaling-stroke"  transform=" translate(-941.48, -1389.77)" d="M 941.716187 1380.325439 C 946.102112 1381.243408 949.427551 1382.41333 950.647827 1386.567383 C 952.112427 1391.553589 949.616882 1396.908325 944.818054 1398.685181 C 940.492798 1400.286499 935.786987 1398.202881 933.295715 1393.583252 C 930.738831 1388.841919 931.686768 1384.664673 936.28241 1381.714478 C 937.599854 1380.868774 939.381653 1380.746216 941.716187 1380.325439 z" stroke-linecap="round" />
</g>
		<g transform="matrix(1 0 0 1 280.98 334.45)"  >
<path style="stroke: none; stroke-width: 1; stroke-dasharray: none; stroke-linecap: butt; stroke-dashoffset: 0; stroke-linejoin: miter; stroke-miterlimit: 4; fill: rgb(229,210,159); fill-rule: nonzero; opacity: 1;" vector-effect="non-scaling-stroke"  transform=" translate(-1466.87, -1428.48)" d="M 1476.945801 1425.152588 C 1475.707764 1429.199341 1474.747437 1433.191772 1472.337036 1435.888306 C 1469.170776 1439.43042 1464.305664 1438.896118 1460.704834 1435.77417 C 1456.64209 1432.251465 1455.726562 1428.371338 1458.043579 1424.494385 C 1460.89624 1419.721191 1465.333252 1417.410889 1469.57312 1419.265625 C 1472.176392 1420.404541 1474.260864 1422.729492 1476.945801 1425.152588 z" stroke-linecap="round" />
</g>
		<g transform="matrix(1 0 0 1 203.87 254.43)"  >
<path style="stroke: none; stroke-width: 1; stroke-dasharray: none; stroke-linecap: butt; stroke-dashoffset: 0; stroke-linejoin: miter; stroke-miterlimit: 4; fill: rgb(234,214,162); fill-rule: nonzero; opacity: 1;" vector-effect="non-scaling-stroke"  transform=" translate(-1389.77, -1348.46)" d="M 1391.320557 1338.560059 C 1393.265869 1339.275879 1394.704468 1339.575195 1395.633057 1340.428955 C 1399.700073 1344.168579 1400.536377 1348.552856 1398.036499 1352.901978 C 1395.661499 1357.033325 1392.112305 1359.113281 1387.240234 1358.231812 C 1382.493164 1357.373047 1380.941772 1353.73584 1380.283447 1349.615112 C 1379.417236 1344.193359 1381.367188 1340.923096 1386.660645 1338.808228 C 1387.833984 1338.339355 1389.265991 1338.518188 1391.320557 1338.560059 z" stroke-linecap="round" />
</g>
		<g transform="matrix(1 0 0 1 244.23 295.95)"  >
<path style="stroke: none; stroke-width: 1; stroke-dasharray: none; stroke-linecap: butt; stroke-dashoffset: 0; stroke-linejoin: miter; stroke-miterlimit: 4; fill: rgb(229,210,159); fill-rule: nonzero; opacity: 1;" vector-effect="non-scaling-stroke"  transform=" translate(-1430.12, -1389.98)" d="M 1420.240356 1386.630005 C 1422.712524 1384.140015 1424.750488 1381.689941 1427.323242 1380.818359 C 1432.341309 1379.117676 1438.033936 1382.220581 1439.575195 1386.713867 C 1441.009155 1390.894653 1438.81311 1395.437378 1433.977417 1398.292236 C 1429.730957 1400.799561 1425.324463 1399.755493 1422.160767 1394.814331 C 1420.831055 1392.737671 1420.715454 1389.883789 1420.240356 1386.630005 z" stroke-linecap="round" />
</g>
		<g transform="matrix(1 0 0 1 -309.89 88.24)"  >
<path style="stroke: none; stroke-width: 1; stroke-dasharray: none; stroke-linecap: butt; stroke-dashoffset: 0; stroke-linejoin: miter; stroke-miterlimit: 4; fill: rgb(239,219,166); fill-rule: nonzero; opacity: 1;" vector-effect="non-scaling-stroke"  transform=" translate(-876.01, -1182.27)" d="M 856.411743 1202.261475 C 853.473511 1202.201294 851.4729 1202.037354 849.483032 1202.122925 C 843.166687 1202.394409 840.380676 1199.183594 840.32019 1191.928345 C 845.983459 1190.532837 851.89917 1189.075195 857.966492 1187.580078 C 852.546936 1179.519897 838.653259 1174.30542 830.883972 1177.491211 C 828.981384 1178.27124 827.463196 1180.313599 826.123291 1182.049683 C 824.783752 1183.785278 823.888855 1185.864258 822.25946 1188.747192 C 815.639343 1182.86084 809.662292 1177.546265 803.10675 1171.717407 C 814.914429 1159.80481 828.512268 1163.092041 841.420349 1164.005859 C 855.230591 1164.983643 865.148132 1173.581787 875.12085 1183.51709 C 878.834045 1180.288696 882.20697 1177.247681 885.693604 1174.343262 C 902.163879 1160.623291 920.730774 1159.8302 940.219116 1165.892944 C 943.10614 1166.791138 945.543213 1169.135986 948.903748 1171.264526 C 941.626099 1177.767212 935.371399 1183.355835 929.27179 1188.805908 C 927.931091 1187.765869 927.124756 1187.469116 926.955383 1186.960327 C 923.653625 1177.040405 920.479553 1175.072388 910.2005 1177.178711 C 903.734436 1178.503906 897.256104 1180.046021 893.649719 1187.437256 C 899.824524 1188.858765 905.460999 1190.156372 910.968262 1191.424194 C 909.996216 1201.624756 909.989014 1201.917236 901.273132 1202.079346 C 886.63739 1202.351807 871.994263 1202.228516 856.411743 1202.261475 z" stroke-linecap="round" />
</g>
		<g transform="matrix(1 0 0 1 309.33 87.98)"  >
<path style="stroke: none; stroke-width: 1; stroke-dasharray: none; stroke-linecap: butt; stroke-dashoffset: 0; stroke-linejoin: miter; stroke-miterlimit: 4; fill: rgb(236,216,164); fill-rule: nonzero; opacity: 1;" vector-effect="non-scaling-stroke"  transform=" translate(-1495.22, -1182.01)" d="M 1513.020264 1168.634033 C 1531.275635 1159.412109 1559.188232 1161.176758 1567.716064 1172.02002 C 1561.731201 1177.335938 1555.731689 1182.664795 1549.183105 1188.481201 C 1548.211426 1187.106201 1547.542969 1186.347046 1547.080933 1185.477905 C 1542.355469 1176.588257 1540.370239 1175.552368 1530.848389 1177.347534 C 1524.303345 1178.581665 1517.998047 1180.320801 1513.162354 1187.140259 C 1519.090942 1188.207764 1524.293335 1189.144653 1529.633545 1190.106201 C 1529.633545 1194.422852 1529.633545 1197.90979 1529.633545 1201.864868 C 1506.79541 1201.864868 1484.604004 1201.864868 1461.321899 1201.864868 C 1460.827515 1198.49939 1460.380249 1195.455322 1459.772949 1191.321289 C 1466.604126 1190.584473 1472.593018 1189.938354 1478.986206 1189.248779 C 1473.479126 1179.605347 1458.247559 1173.134644 1449.600586 1177.152222 C 1446.369385 1178.653564 1444.690552 1183.496094 1441.594482 1187.802124 C 1435.107544 1183.372559 1428.855957 1177.306152 1422.720947 1170.955933 C 1439.860352 1155.731445 1471.087891 1160.71875 1495.562012 1182.406494 C 1501.101318 1177.998413 1506.738525 1173.512451 1513.020264 1168.634033 z" stroke-linecap="round" />
</g>
		<g transform="matrix(1 0 0 1 -140.9 288.86)"  >
<path style="stroke: none; stroke-width: 1; stroke-dasharray: none; stroke-linecap: butt; stroke-dashoffset: 0; stroke-linejoin: miter; stroke-miterlimit: 4; fill: rgb(232,213,161); fill-rule: nonzero; opacity: 1;" vector-effect="non-scaling-stroke"  transform=" translate(-1044.99, -1382.89)" d="M 1037.620483 1375.795044 C 1040.860962 1373.049805 1043.693115 1371.933105 1047.279663 1373.380005 C 1053.3302 1375.820435 1056.588623 1380.974976 1054.535034 1385.296631 C 1051.439941 1391.809814 1045.279053 1394.700073 1040.105957 1392.065674 C 1034.134644 1389.025024 1033.118652 1383.718628 1037.620483 1375.795044 z" stroke-linecap="round" />
</g>
		<g transform="matrix(1 0 0 1 140.86 289.27)"  >
<path style="stroke: none; stroke-width: 1; stroke-dasharray: none; stroke-linecap: butt; stroke-dashoffset: 0; stroke-linejoin: miter; stroke-miterlimit: 4; fill: rgb(232,213,161); fill-rule: nonzero; opacity: 1;" vector-effect="non-scaling-stroke"  transform=" translate(-1326.75, -1383.3)" d="M 1318.201904 1378.082642 C 1321.294189 1376.310669 1323.900269 1374.424072 1326.637817 1374.20874 C 1331.808472 1373.80188 1336.171143 1377.754272 1336.47522 1382.126709 C 1336.79248 1386.688599 1333.273926 1391.0448 1328.411011 1392.110474 C 1323.244385 1393.24292 1318.597778 1391.151367 1317.225464 1386.299561 C 1316.577637 1384.008911 1317.541382 1381.262329 1318.201904 1378.082642 z" stroke-linecap="round" />
</g>
		<g transform="matrix(1 0 0 1 -0.36 368.96)"  >
<path style="stroke: none; stroke-width: 1; stroke-dasharray: none; stroke-linecap: butt; stroke-dashoffset: 0; stroke-linejoin: miter; stroke-miterlimit: 4; fill: rgb(239,219,166); fill-rule: nonzero; opacity: 1;" vector-effect="non-scaling-stroke"  transform=" translate(-1185.53, -1462.99)" d="M 1145.718018 1452.189453 C 1145.156616 1449.858276 1144.812012 1448.303467 1144.331055 1446.134155 C 1171.674316 1443.958374 1198.475952 1443.663452 1226.737671 1445.422363 C 1225.77002 1449.975098 1224.98877 1453.650757 1224.059326 1458.02417 C 1203.468384 1458.02417 1183.275757 1458.02417 1163.09314 1458.02417 C 1160.974731 1463.658936 1162.880249 1466.373047 1167.738159 1467.122803 C 1171.008789 1467.627563 1174.35498 1467.814087 1177.669067 1467.83313 C 1190.950684 1467.909302 1204.232788 1467.864624 1219.172607 1467.864624 C 1217.778076 1473.195801 1216.736572 1477.177002 1215.553223 1481.70105 C 1195.944946 1481.70105 1176.439575 1481.70105 1156.148438 1481.70105 C 1152.796631 1472.271118 1149.365723 1462.618286 1145.718018 1452.189453 z" stroke-linecap="round" />
</g>
		<g transform="matrix(1 0 0 1 -0.77 404.63)"  >
<path style="stroke: none; stroke-width: 1; stroke-dasharray: none; stroke-linecap: butt; stroke-dashoffset: 0; stroke-linejoin: miter; stroke-miterlimit: 4; fill: rgb(232,213,161); fill-rule: nonzero; opacity: 1;" vector-effect="non-scaling-stroke"  transform=" translate(-1185.12, -1498.66)" d="M 1199.377075 1504.218628 C 1187.545166 1504.245117 1176.637329 1504.245117 1164.925293 1504.245117 C 1163.590942 1501.11084 1162.085327 1497.574585 1160.167725 1493.070312 C 1177.031494 1493.070312 1192.991943 1493.070312 1210.081055 1493.070312 C 1209.193115 1496.537476 1208.337036 1499.880371 1207.419189 1503.464355 C 1204.845093 1503.727539 1202.572998 1503.959839 1199.377075 1504.218628 z" stroke-linecap="round" />
</g>
		<g transform="matrix(1 0 0 1 -0.1 427.21)"  >
<path style="stroke: none; stroke-width: 1; stroke-dasharray: none; stroke-linecap: butt; stroke-dashoffset: 0; stroke-linejoin: miter; stroke-miterlimit: 4; fill: rgb(229,210,159); fill-rule: nonzero; opacity: 1;" vector-effect="non-scaling-stroke"  transform=" translate(-1185.79, -1521.24)" d="M 1177.346802 1527.78833 C 1171.352783 1525.782104 1169.34729 1522.202271 1170.441162 1516.050049 C 1180.794556 1513.298706 1191.037476 1513.735962 1201.425659 1516.138794 C 1198.957153 1528.067017 1198.789795 1528.253174 1188.132324 1528.317627 C 1184.819946 1528.337646 1181.506104 1528.079468 1177.346802 1527.78833 z" stroke-linecap="round" />
</g>
		<g transform="matrix(1 0 0 1 -0.82 454.96)"  >
<path style="stroke: none; stroke-width: 1; stroke-dasharray: none; stroke-linecap: butt; stroke-dashoffset: 0; stroke-linejoin: miter; stroke-miterlimit: 4; fill: rgb(229,210,159); fill-rule: nonzero; opacity: 1;" vector-effect="non-scaling-stroke"  transform=" translate(-1185.07, -1548.99)" d="M 1192.514404 1543.314453 C 1190.209717 1548.790161 1188.129517 1553.458618 1185.30603 1559.7948 C 1182.225708 1552.498047 1179.963989 1547.140625 1177.627808 1541.606934 C 1182.09314 1537.271973 1186.775513 1537.732178 1191.481445 1539.321289 C 1192.179688 1539.557129 1192.333252 1541.405151 1192.514404 1543.314453 z" stroke-linecap="round" />
</g>
		<g transform="matrix(1 0 0 1 0.07 267.66)"  >
<path style="stroke: none; stroke-width: 1; stroke-dasharray: none; stroke-linecap: butt; stroke-dashoffset: 0; stroke-linejoin: miter; stroke-miterlimit: 4; fill: rgb(238,218,165); fill-rule: nonzero; opacity: 1;" vector-effect="non-scaling-stroke"  transform=" translate(-1185.96, -1361.69)" d="M 1195.090088 1355.782959 C 1198.640259 1356.078735 1201.877808 1356.218872 1201.584961 1359.770142 C 1201.394165 1362.08374 1199.781982 1366.046753 1198.437744 1366.208496 C 1190.425537 1367.172974 1182.210938 1368.120239 1174.261719 1367.25647 C 1170.163208 1366.811157 1169.574829 1361.598389 1171.05896 1356.171631 C 1178.626343 1356.031006 1186.410278 1355.886353 1195.090088 1355.782959 z" stroke-linecap="round" />
</g>
		<g transform="matrix(1 0 0 1 309.14 -403.77)"  >
<path style="stroke: none; stroke-width: 1; stroke-dasharray: none; stroke-linecap: butt; stroke-dashoffset: 0; stroke-linejoin: miter; stroke-miterlimit: 4; fill: rgb(238,218,165); fill-rule: nonzero; opacity: 1;" vector-effect="non-scaling-stroke"  transform=" translate(-1495.03, -690.26)" d="M 1457.482422 631.460266 C 1474.170288 615.439514 1493.348145 612.888672 1513.49231 620.156616 C 1534.246094 627.64447 1547.769897 642.681335 1552.075928 664.786987 C 1554.958862 679.588196 1554.805298 694.550293 1552.536377 709.47644 C 1549.253784 731.071899 1537.19043 746.682251 1518.954102 757.714539 C 1506.199829 765.43042 1492.55603 766.24115 1478.744385 760.454224 C 1457.642212 751.612549 1444.285889 735.75177 1438.754517 713.808655 C 1434.466431 696.797852 1435.179443 679.520691 1439.007568 662.36908 C 1441.713867 650.244446 1447.8396 640.240601 1457.482422 631.460266 M 1539.966797 690.898987 C 1539.896362 688.235779 1539.996826 685.555176 1539.726685 682.912354 C 1538.320679 669.158264 1535.263062 655.979492 1526.053467 645.029663 C 1509.883301 625.803528 1478.109985 625.749634 1463.884399 645.424744 C 1456.020874 656.300781 1450.280273 668.317322 1451.008301 682.427124 C 1451.299683 688.07605 1451.342407 693.748718 1451.231934 699.405334 C 1450.803955 721.283813 1462.484253 735.537109 1480.386963 745.842896 C 1482.205444 746.889771 1484.45105 747.194702 1487.793335 748.254578 C 1487.793335 735.816162 1487.866943 724.560791 1487.763672 713.307068 C 1487.708618 707.315735 1487.60022 701.539551 1482.147095 696.996582 C 1479.573486 694.852539 1478.304932 690.815491 1477.113037 687.402771 C 1473.985107 678.446289 1482.102051 665.352783 1491.500977 663.763794 C 1499.245239 662.45459 1507.957275 666.588867 1511.926147 673.456421 C 1516.113647 680.702393 1516.106079 691.83197 1509.871216 696.572876 C 1502.196289 702.408691 1501.771484 709.651184 1501.92627 717.77771 C 1502.059448 724.770325 1501.836426 731.773926 1502.135864 738.75708 C 1502.267944 741.834778 1503.303711 744.873779 1504.10791 748.803955 C 1516.986694 743.780518 1525.870972 736.288025 1531.75293 725.338013 C 1537.209961 715.17926 1539.632202 704.202454 1539.966797 690.898987 M 1492.11145 677.767944 C 1489.705688 684.213989 1490.280273 687.155518 1494.294189 688.087158 C 1497.242432 688.771423 1499.558716 687.81897 1500.53479 684.70813 C 1501.786377 680.718811 1499.886963 678.705505 1492.11145 677.767944 z" stroke-linecap="round" />
</g>
		<g transform="matrix(1 0 0 1 -308.14 -404.01)"  >
<path style="stroke: none; stroke-width: 1; stroke-dasharray: none; stroke-linecap: butt; stroke-dashoffset: 0; stroke-linejoin: miter; stroke-miterlimit: 4; fill: rgb(238,218,165); fill-rule: nonzero; opacity: 1;" vector-effect="non-scaling-stroke"  transform=" translate(-877.75, -690.02)" d="M 825.43103 651.700806 C 833.689697 634.060303 846.262207 622.219788 864.675537 617.981567 C 892.189148 611.648743 918.062256 624.488831 929.421387 650.687988 C 941.029907 677.462219 940.317871 704.760498 927.711365 730.987427 C 915.706665 755.962463 889.651367 768.69397 864.843628 761.793518 C 844.638 756.173157 830.936401 742.254822 823.771118 722.660034 C 815.196472 699.211182 816.036255 675.651306 825.43103 651.700806 M 836.56543 717.796204 C 844.674072 734.585327 856.113464 745.507568 868.358032 747.463684 C 868.851135 743.917114 869.640076 740.397217 869.768616 736.853333 C 870.010071 730.201965 869.628052 723.525208 869.947754 716.880249 C 870.365723 708.194824 868.554749 700.965515 861.910645 694.383545 C 854.112122 686.658081 855.344604 676.773621 863.451477 668.754028 C 871.165955 661.122559 881.497253 661.146179 890.330322 668.815308 C 899.560547 676.829529 900.321167 684.242737 892.775146 693.972351 C 890.945068 696.332031 888.588135 698.295654 886.857544 700.715881 C 885.569824 702.516785 884.115784 704.750366 884.088013 706.809387 C 883.931213 718.457275 884.075439 730.113647 884.391357 741.759644 C 884.449646 743.908508 885.764587 746.023193 886.699219 748.732544 C 889.321533 747.902405 891.687683 747.615601 893.547485 746.49115 C 908.189148 737.639099 918.37146 725.693176 920.60437 707.962708 C 922.975708 689.13324 921.780518 670.943604 914.15564 653.218201 C 903.407532 628.232361 859.359985 620.708496 843.536316 649.07312 C 831.50647 670.637207 828.557007 692.781555 836.56543 717.796204 M 880.206543 677.654602 C 876.982422 675.660156 874.198792 676.829468 872.68103 679.670105 C 871.743469 681.424622 871.624207 684.265259 872.409241 686.06311 C 872.932617 687.261658 875.869934 688.275513 877.411987 687.937012 C 879.285889 687.525696 881.507019 685.92688 882.30658 684.23938 C 882.982971 682.811829 881.847595 680.525757 880.206543 677.654602 z" stroke-linecap="round" />
</g>
		<g transform="matrix(1 0 0 1 0.2 101.33)"  >
<path style="stroke: none; stroke-width: 1; stroke-dasharray: none; stroke-linecap: butt; stroke-dashoffset: 0; stroke-linejoin: miter; stroke-miterlimit: 4; fill: rgb(232,213,161); fill-rule: nonzero; opacity: 1;" vector-effect="non-scaling-stroke"  transform=" translate(-1186.1, -1195.36)" d="M 1192.095947 1190.11145 C 1189.828735 1200.980103 1187.675537 1211.003418 1185.416748 1221.518921 C 1180.750488 1214.785645 1175.432861 1183.397827 1176.449829 1169.207275 C 1182.494019 1169.207275 1188.617798 1169.207275 1195.869751 1169.207275 C 1194.650391 1175.890747 1193.430298 1182.578491 1192.095947 1190.11145 z" stroke-linecap="round" />
</g>
</g>
</g>
</svg>