<!DOCTYPE svg PUBLIC "-//W3C//DTD SVG 1.1//EN" "http://www.w3.org/Graphics/SVG/1.1/DTD/svg11.dtd">
<!-- Uploaded to: SVG Repo, www.svgrepo.com, Transformed by: SVG Repo Mixer Tools -->
<svg width="64px" height="64px" viewBox="0 0 192 192" id="Layer_1" version="1.1" xml:space="preserve" xmlns="http://www.w3.org/2000/svg" xmlns:xlink="http://www.w3.org/1999/xlink" fill="#c29b45" stroke="#c29b45">
<g id="SVGRepo_bgCarrier" stroke-width="0"/>
<g id="SVGRepo_tracerCarrier" stroke-linecap="round" stroke-linejoin="round"/>
<g id="SVGRepo_iconCarrier"> <style type="text/css"> .st0{fill:#E0E0E0;} .st1{fill:#FFFFFF;fill-opacity:0.2;} .st2{fill:#212121;fill-opacity:0.1;} .st3{fill:#616161;} .st4{fill:#FFFFFF;fill-opacity:0.1;} .st5{fill:#212121;fill-opacity:0.2;} .st6{fill:url(#SVGID_1_);} .st7{clip-path:url(#SVGID_3_);} .st8{fill:none;} .st9{clip-path:url(#SVGID_5_);} .st10{clip-path:url(#SVGID_7_);} .st11{fill:none;stroke:#000000;stroke-width:0.25;stroke-miterlimit:10;} .st12{clip-path:url(#SVGID_9_);} .st13{opacity:0.4;} .st14{clip-path:url(#SVGID_11_);} .st15{clip-path:url(#SVGID_13_);} .st16{clip-path:url(#SVGID_15_);} .st17{clip-path:url(#SVGID_17_);} .st18{clip-path:url(#SVGID_19_);} .st19{clip-path:url(#SVGID_21_);} .st20{fill:#DB4437;fill-opacity:0.4;} .st21{fill:url(#SVGID_22_);} .st22{clip-path:url(#SVGID_24_);} .st23{clip-path:url(#SVGID_26_);} .st24{clip-path:url(#SVGID_27_);} .st25{clip-path:url(#SVGID_29_);} .st26{clip-path:url(#SVGID_30_);} .st27{clip-path:url(#SVGID_31_);} .st28{clip-path:url(#SVGID_32_);} .st29{clip-path:url(#SVGID_33_);} .st30{clip-path:url(#SVGID_34_);} .st31{clip-path:url(#SVGID_36_);} .st32{fill:url(#SVGID_37_);} .st33{clip-path:url(#SVGID_39_);} .st34{clip-path:url(#SVGID_41_);} .st35{clip-path:url(#SVGID_42_);} .st36{clip-path:url(#SVGID_44_);} .st37{clip-path:url(#SVGID_45_);} .st38{clip-path:url(#SVGID_46_);} .st39{clip-path:url(#SVGID_47_);} .st40{clip-path:url(#SVGID_48_);} .st41{clip-path:url(#SVGID_49_);} .st42{clip-path:url(#SVGID_51_);} .st43{fill:url(#SVGID_52_);} .st44{clip-path:url(#SVGID_54_);} .st45{clip-path:url(#SVGID_56_);} .st46{clip-path:url(#SVGID_57_);} .st47{clip-path:url(#SVGID_59_);} .st48{clip-path:url(#SVGID_60_);} .st49{clip-path:url(#SVGID_61_);} .st50{clip-path:url(#SVGID_62_);} .st51{clip-path:url(#SVGID_63_);} .st52{clip-path:url(#SVGID_64_);} .st53{clip-path:url(#SVGID_66_);} .st54{fill:url(#SVGID_67_);} .st55{clip-path:url(#SVGID_69_);} .st56{clip-path:url(#SVGID_71_);} .st57{clip-path:url(#SVGID_72_);} .st58{clip-path:url(#SVGID_74_);} .st59{clip-path:url(#SVGID_75_);} .st60{clip-path:url(#SVGID_76_);} .st61{clip-path:url(#SVGID_77_);} .st62{clip-path:url(#SVGID_78_);} .st63{clip-path:url(#SVGID_79_);} .st64{clip-path:url(#SVGID_81_);} .st65{fill:url(#SVGID_82_);} .st66{clip-path:url(#SVGID_84_);} .st67{clip-path:url(#SVGID_86_);} .st68{clip-path:url(#SVGID_87_);} .st69{clip-path:url(#SVGID_89_);} .st70{clip-path:url(#SVGID_90_);} .st71{clip-path:url(#SVGID_91_);} .st72{clip-path:url(#SVGID_92_);} .st73{clip-path:url(#SVGID_93_);} .st74{clip-path:url(#SVGID_94_);} .st75{clip-path:url(#SVGID_96_);} .st76{fill:url(#SVGID_97_);} .st77{clip-path:url(#SVGID_99_);} .st78{clip-path:url(#SVGID_101_);} .st79{clip-path:url(#SVGID_102_);} .st80{clip-path:url(#SVGID_104_);} .st81{clip-path:url(#SVGID_105_);} .st82{clip-path:url(#SVGID_106_);} .st83{clip-path:url(#SVGID_107_);} .st84{clip-path:url(#SVGID_108_);} .st85{clip-path:url(#SVGID_109_);} .st86{clip-path:url(#SVGID_111_);} .st87{fill:url(#SVGID_112_);} .st88{clip-path:url(#SVGID_114_);} .st89{clip-path:url(#SVGID_116_);} .st90{clip-path:url(#SVGID_117_);} .st91{clip-path:url(#SVGID_119_);} .st92{clip-path:url(#SVGID_120_);} .st93{clip-path:url(#SVGID_121_);} .st94{clip-path:url(#SVGID_122_);} .st95{clip-path:url(#SVGID_123_);} .st96{clip-path:url(#SVGID_124_);} .st97{clip-path:url(#SVGID_126_);} .st98{fill:url(#SVGID_127_);} .st99{clip-path:url(#SVGID_129_);} .st100{clip-path:url(#SVGID_131_);} .st101{clip-path:url(#SVGID_132_);} .st102{clip-path:url(#SVGID_134_);} .st103{clip-path:url(#SVGID_135_);} .st104{clip-path:url(#SVGID_136_);} .st105{clip-path:url(#SVGID_137_);} .st106{clip-path:url(#SVGID_138_);} .st107{clip-path:url(#SVGID_139_);} .st108{clip-path:url(#SVGID_141_);} .st109{fill:url(#SVGID_142_);} .st110{clip-path:url(#SVGID_144_);} .st111{clip-path:url(#SVGID_146_);} .st112{clip-path:url(#SVGID_147_);} .st113{clip-path:url(#SVGID_149_);} .st114{clip-path:url(#SVGID_150_);} .st115{clip-path:url(#SVGID_151_);} .st116{clip-path:url(#SVGID_152_);} .st117{clip-path:url(#SVGID_153_);} .st118{clip-path:url(#SVGID_154_);} .st119{clip-path:url(#SVGID_156_);} .st120{fill:url(#SVGID_157_);} .st121{clip-path:url(#SVGID_159_);} .st122{clip-path:url(#SVGID_161_);} .st123{clip-path:url(#SVGID_162_);} .st124{clip-path:url(#SVGID_164_);} .st125{clip-path:url(#SVGID_165_);} .st126{clip-path:url(#SVGID_166_);} .st127{clip-path:url(#SVGID_167_);} .st128{clip-path:url(#SVGID_168_);} .st129{clip-path:url(#SVGID_169_);} .st130{clip-path:url(#SVGID_171_);} .st131{fill:url(#SVGID_172_);} .st132{clip-path:url(#SVGID_174_);} .st133{clip-path:url(#SVGID_176_);} .st134{clip-path:url(#SVGID_177_);} .st135{clip-path:url(#SVGID_179_);} .st136{clip-path:url(#SVGID_180_);} .st137{clip-path:url(#SVGID_181_);} .st138{clip-path:url(#SVGID_182_);} .st139{clip-path:url(#SVGID_183_);} .st140{clip-path:url(#SVGID_184_);} .st141{clip-path:url(#SVGID_186_);} .st142{fill:url(#SVGID_187_);} .st143{clip-path:url(#SVGID_189_);} .st144{clip-path:url(#SVGID_191_);} .st145{clip-path:url(#SVGID_192_);} .st146{clip-path:url(#SVGID_194_);} .st147{clip-path:url(#SVGID_195_);} .st148{clip-path:url(#SVGID_196_);} .st149{clip-path:url(#SVGID_197_);} .st150{clip-path:url(#SVGID_198_);} .st151{clip-path:url(#SVGID_199_);} .st152{clip-path:url(#SVGID_201_);} .st153{fill:url(#SVGID_202_);} .st154{clip-path:url(#SVGID_204_);} .st155{clip-path:url(#SVGID_206_);} .st156{clip-path:url(#SVGID_207_);} .st157{clip-path:url(#SVGID_209_);} .st158{clip-path:url(#SVGID_210_);} .st159{clip-path:url(#SVGID_211_);} .st160{clip-path:url(#SVGID_212_);} .st161{clip-path:url(#SVGID_213_);} .st162{clip-path:url(#SVGID_214_);} .st163{clip-path:url(#SVGID_216_);} .st164{fill:url(#SVGID_217_);} .st165{clip-path:url(#SVGID_219_);} .st166{clip-path:url(#SVGID_221_);} .st167{clip-path:url(#SVGID_222_);} .st168{clip-path:url(#SVGID_224_);} .st169{clip-path:url(#SVGID_225_);} .st170{clip-path:url(#SVGID_226_);} .st171{clip-path:url(#SVGID_227_);} .st172{clip-path:url(#SVGID_228_);} .st173{clip-path:url(#SVGID_229_);} .st174{clip-path:url(#SVGID_231_);} .st175{fill:url(#SVGID_232_);} .st176{clip-path:url(#SVGID_234_);} .st177{clip-path:url(#SVGID_236_);} .st178{clip-path:url(#SVGID_237_);} .st179{clip-path:url(#SVGID_239_);} .st180{clip-path:url(#SVGID_240_);} .st181{clip-path:url(#SVGID_241_);} .st182{clip-path:url(#SVGID_242_);} .st183{clip-path:url(#SVGID_243_);} .st184{clip-path:url(#SVGID_244_);} .st185{clip-path:url(#SVGID_246_);} .st186{fill:url(#SVGID_247_);} .st187{clip-path:url(#SVGID_249_);} .st188{clip-path:url(#SVGID_251_);} .st189{clip-path:url(#SVGID_252_);} .st190{clip-path:url(#SVGID_254_);} .st191{clip-path:url(#SVGID_255_);} .st192{clip-path:url(#SVGID_256_);} .st193{clip-path:url(#SVGID_257_);} .st194{clip-path:url(#SVGID_258_);} .st195{clip-path:url(#SVGID_259_);} .st196{clip-path:url(#SVGID_261_);} .st197{fill:url(#SVGID_262_);} .st198{clip-path:url(#SVGID_264_);} .st199{clip-path:url(#SVGID_266_);} .st200{clip-path:url(#SVGID_267_);} .st201{clip-path:url(#SVGID_269_);} .st202{clip-path:url(#SVGID_270_);} .st203{clip-path:url(#SVGID_271_);} .st204{clip-path:url(#SVGID_272_);} .st205{clip-path:url(#SVGID_273_);} .st206{clip-path:url(#SVGID_274_);} .st207{clip-path:url(#SVGID_276_);} .st208{fill:url(#SVGID_277_);} .st209{clip-path:url(#SVGID_279_);} .st210{clip-path:url(#SVGID_281_);} .st211{clip-path:url(#SVGID_282_);} .st212{clip-path:url(#SVGID_284_);} .st213{clip-path:url(#SVGID_285_);} .st214{clip-path:url(#SVGID_286_);} .st215{clip-path:url(#SVGID_287_);} .st216{clip-path:url(#SVGID_288_);} .st217{clip-path:url(#SVGID_289_);} .st218{clip-path:url(#SVGID_291_);} .st219{fill:url(#SVGID_292_);} .st220{clip-path:url(#SVGID_294_);} .st221{clip-path:url(#SVGID_296_);} .st222{clip-path:url(#SVGID_297_);} .st223{clip-path:url(#SVGID_299_);} .st224{clip-path:url(#SVGID_300_);} .st225{clip-path:url(#SVGID_301_);} .st226{clip-path:url(#SVGID_302_);} .st227{clip-path:url(#SVGID_303_);} .st228{clip-path:url(#SVGID_304_);} .st229{clip-path:url(#SVGID_306_);} .st230{fill:url(#SVGID_307_);} .st231{clip-path:url(#SVGID_309_);} .st232{clip-path:url(#SVGID_311_);} .st233{clip-path:url(#SVGID_312_);} .st234{clip-path:url(#SVGID_314_);} .st235{clip-path:url(#SVGID_315_);} .st236{clip-path:url(#SVGID_316_);} .st237{clip-path:url(#SVGID_317_);} .st238{clip-path:url(#SVGID_318_);} .st239{clip-path:url(#SVGID_319_);} .st240{clip-path:url(#SVGID_321_);} .st241{fill:url(#SVGID_322_);} .st242{clip-path:url(#SVGID_324_);} .st243{clip-path:url(#SVGID_326_);} .st244{clip-path:url(#SVGID_327_);} .st245{clip-path:url(#SVGID_329_);} .st246{clip-path:url(#SVGID_330_);} .st247{clip-path:url(#SVGID_331_);} .st248{clip-path:url(#SVGID_332_);} .st249{clip-path:url(#SVGID_333_);} .st250{clip-path:url(#SVGID_334_);} .st251{clip-path:url(#SVGID_336_);} .st252{fill:url(#SVGID_337_);} .st253{clip-path:url(#SVGID_339_);} .st254{clip-path:url(#SVGID_341_);} .st255{clip-path:url(#SVGID_342_);} .st256{clip-path:url(#SVGID_344_);} .st257{clip-path:url(#SVGID_345_);} .st258{clip-path:url(#SVGID_346_);} .st259{clip-path:url(#SVGID_347_);} .st260{clip-path:url(#SVGID_348_);} .st261{clip-path:url(#SVGID_349_);} .st262{clip-path:url(#SVGID_351_);} .st263{fill:url(#SVGID_352_);} .st264{clip-path:url(#SVGID_354_);} .st265{clip-path:url(#SVGID_356_);} .st266{clip-path:url(#SVGID_357_);} .st267{clip-path:url(#SVGID_359_);} .st268{clip-path:url(#SVGID_360_);} .st269{clip-path:url(#SVGID_361_);} .st270{clip-path:url(#SVGID_362_);} .st271{clip-path:url(#SVGID_363_);} .st272{clip-path:url(#SVGID_364_);} .st273{clip-path:url(#SVGID_366_);} .st274{fill:url(#SVGID_367_);} .st275{clip-path:url(#SVGID_369_);} .st276{clip-path:url(#SVGID_371_);} .st277{clip-path:url(#SVGID_372_);} .st278{clip-path:url(#SVGID_374_);} .st279{clip-path:url(#SVGID_375_);} .st280{clip-path:url(#SVGID_376_);} .st281{clip-path:url(#SVGID_377_);} .st282{clip-path:url(#SVGID_378_);} .st283{clip-path:url(#SVGID_379_);} .st284{clip-path:url(#SVGID_381_);} .st285{fill:url(#SVGID_382_);} .st286{clip-path:url(#SVGID_384_);} .st287{clip-path:url(#SVGID_386_);} .st288{clip-path:url(#SVGID_387_);} .st289{clip-path:url(#SVGID_389_);} .st290{clip-path:url(#SVGID_390_);} .st291{clip-path:url(#SVGID_391_);} .st292{clip-path:url(#SVGID_392_);} .st293{clip-path:url(#SVGID_393_);} .st294{clip-path:url(#SVGID_394_);} .st295{clip-path:url(#SVGID_396_);} .st296{fill:url(#SVGID_397_);} .st297{clip-path:url(#SVGID_399_);} .st298{clip-path:url(#SVGID_401_);} .st299{clip-path:url(#SVGID_402_);} .st300{clip-path:url(#SVGID_404_);} .st301{clip-path:url(#SVGID_405_);} .st302{clip-path:url(#SVGID_406_);} .st303{clip-path:url(#SVGID_407_);} .st304{clip-path:url(#SVGID_408_);} .st305{clip-path:url(#SVGID_409_);} .st306{clip-path:url(#SVGID_411_);} </style> <g> <g> <path d="M47.61,48.88c-1.44,0-2.75-0.25-3.93-0.76c-1.19-0.51-2.28-2.11-3.3-4.82c-0.85-1.18-1.86-1.86-3.04-2.03H20.72v-3.81 h16.62c1.18-0.25,2.2-1.01,3.04-2.28c1.01-2.54,2.11-4.08,3.3-4.63c1.18-0.55,2.49-0.82,3.93-0.82 c2.28,0.17,12.47,1.48,30.57,3.93v1.78l-5.33-0.38v8.25l5.33-0.25v1.78C60.08,47.36,49.89,48.71,47.61,48.88z M47.61,49 c-1.44,0-2.75-0.25-3.93-0.76c-1.19-0.51-2.28-2.11-3.3-4.82c-0.85-1.18-1.86-1.86-3.04-2.03H20.72v-3.81h16.62 c1.18-0.25,2.2-1.01,3.04-2.28c1.01-2.54,2.11-4.08,3.3-4.63c1.18-0.55,2.49-0.82,3.93-0.82c2.28,0.17,12.47,1.48,30.57,3.93v1.78 l-5.33-0.38v8.25l5.33-0.25v1.78C60.08,47.48,49.89,48.84,47.61,49z M68.79,159.99l-0.38-0.13H26.3c-0.51-0.25-0.97-0.44-1.4-0.57 c-0.42-0.13-0.72-0.23-0.89-0.32c0.42-0.42,0.65-0.82,0.7-1.21c0.04-0.38,0.1-0.7,0.19-0.95c0.08-0.25,0.25-0.46,0.51-0.63 l2.54-3.55c-1.69-10.74-2.58-21.61-2.66-32.6l-1.01,0.13c-2.37,0-3.55-0.84-3.55-2.54v-7.99c0-8.96,0.21-17.84,0.63-26.64 c0.42-7.27,2.41-12.77,5.96-16.49c2.45-2.28,5.62-3.42,9.51-3.42c5.33,0,9.13,1.82,11.42,5.45c1.01,1.44,1.52,3.04,1.52,4.82 l-0.13,1.14c0.42,1.01,0.93,1.95,1.52,2.79c1.18,1.78,1.78,3.42,1.78,4.95c0,0.76-0.34,1.35-1.02,1.78 c-0.68,0.42-1.01,0.85-1.01,1.27l0.13,0.63c-0.09,0.76-0.3,1.46-0.63,2.09c-0.34,0.63-0.51,1.25-0.51,1.84v0.38 c0.68,4.82,2.28,9.13,4.82,12.94c0.51,0.85,1.1,1.27,1.78,1.27c0.42,0,0.87-0.08,1.33-0.25c0.46-0.17,0.91-0.25,1.33-0.25 c0.42,0.34,0.63,0.68,0.63,1.02c0,0.68-0.3,1.21-0.89,1.58c-0.59,0.38-1.14,0.57-1.65,0.57l-0.51,0.13 c-3.89,0-7.36-5.33-10.4-15.98c-0.76-0.51-1.48-0.76-2.16-0.76c-0.76,0-1.31,0.7-1.65,2.09c-0.34,1.4-0.51,2.9-0.51,4.5 c0,1.35,0.17,2.75,0.51,4.19l0.38,2.92c1.18,10.06,2.45,20.08,3.81,30.06c5.33-7.86,10.06-14.76,14.21-20.68 c1.27-1.27,2.66-1.9,4.19-1.9c1.02,0,1.99,0.21,2.92,0.63c2.28,1.1,3.42,2.71,3.42,4.82l-0.13,1.01 c-4.31,10.15-7.86,20.63-10.65,31.46l3.68,1.52l5.96,2.66c0.51,0.42,0.76,0.93,0.76,1.52c0,1.1-0.13,1.9-0.38,2.41 c0,0.68-0.19,1.23-0.57,1.65C69.74,159.78,69.3,159.99,68.79,159.99z M68.79,160.12l-0.38-0.13H26.3 c-0.51-0.25-0.97-0.44-1.4-0.57c-0.42-0.13-0.72-0.23-0.89-0.32c0.42-0.42,0.65-0.82,0.7-1.21c0.04-0.38,0.1-0.7,0.19-0.95 c0.08-0.25,0.25-0.46,0.51-0.63l2.54-3.55c-1.69-10.74-2.58-21.61-2.66-32.6l-1.01,0.13c-2.37,0-3.55-0.84-3.55-2.54v-7.99 c0-8.96,0.21-17.84,0.63-26.64c0.42-7.27,2.41-12.77,5.96-16.49c2.45-2.28,5.62-3.42,9.51-3.42c5.33,0,9.13,1.82,11.42,5.45 c1.01,1.44,1.52,3.04,1.52,4.82l-0.13,1.14c0.42,1.01,0.93,1.95,1.52,2.79c1.18,1.78,1.78,3.42,1.78,4.95 c0,0.76-0.34,1.35-1.02,1.78c-0.68,0.42-1.01,0.85-1.01,1.27l0.13,0.63c-0.09,0.76-0.3,1.46-0.63,2.09 c-0.34,0.63-0.51,1.25-0.51,1.84v0.38c0.68,4.82,2.28,9.13,4.82,12.94c0.51,0.85,1.1,1.27,1.78,1.27c0.42,0,0.87-0.08,1.33-0.25 c0.46-0.17,0.91-0.25,1.33-0.25c0.42,0.34,0.63,0.68,0.63,1.01c0,0.68-0.3,1.21-0.89,1.59c-0.59,0.38-1.14,0.57-1.65,0.57 l-0.51,0.13c-3.89,0-7.36-5.33-10.4-15.98c-0.76-0.51-1.48-0.76-2.16-0.76c-0.76,0-1.31,0.7-1.65,2.09 c-0.34,1.4-0.51,2.9-0.51,4.5c0,1.35,0.17,2.75,0.51,4.19l0.38,2.92c1.18,10.06,2.45,20.08,3.81,30.06 c5.33-7.86,10.06-14.76,14.21-20.68c1.27-1.27,2.66-1.9,4.19-1.9c1.02,0,1.99,0.21,2.92,0.63c2.28,1.1,3.42,2.71,3.42,4.82 l-0.13,1.01c-4.31,10.15-7.86,20.63-10.65,31.46l3.68,1.52l5.96,2.66c0.51,0.42,0.76,0.93,0.76,1.52c0,1.1-0.13,1.9-0.38,2.41 c0,0.68-0.19,1.23-0.57,1.65C69.74,159.91,69.3,160.12,68.79,160.12z M47.23,44.95V33.4c-3.21,0.17-4.82,2.11-4.82,5.83 C42.41,42.96,44.01,44.86,47.23,44.95z M47.23,45.07V33.53c-3.21,0.17-4.82,2.11-4.82,5.83C42.41,43.09,44.01,44.99,47.23,45.07z M49.51,44.82l4.69-0.25V33.91l-4.69-0.25V44.82z M49.51,44.95l4.69-0.25V34.04l-4.69-0.25V44.95z M61.06,93.15l-1.01-0.25 c-2.11-0.51-3.17-1.22-3.17-2.16V90.1c0-0.84,0.17-1.46,0.51-1.84c0.34-0.38,0.74-0.68,1.21-0.89c0.46-0.21,0.87-0.49,1.21-0.82 l4.69,1.65c0.76,0.34,1.61,0.51,2.54,0.51c0.59,0,1.14-0.08,1.65-0.25l8.75-3.68c0.34-0.08,0.55-0.34,0.63-0.76 c0-0.42-0.17-0.76-0.51-1.01l-5.96-4.31c-4.14-2.96-7.02-5.16-8.63-6.6l-5.58-3.3l-1.78-1.78c-0.85-1.27-1.27-2.54-1.27-3.81 c0-1.01,0.17-1.67,0.51-1.97c0.34-0.3,0.59-0.57,0.76-0.82h4.06c0.25,0.51,0.57,1.1,0.95,1.78c0.38,0.68,0.61,1.31,0.7,1.9 c0.76,2.37,1.44,3.93,2.03,4.69c1.1,1.35,4.35,3.3,9.77,5.83c1.52,0.85,3,1.63,4.44,2.35c1.44,0.72,2.54,1.38,3.3,1.97 c0.25,0.17,0.46,0.25,0.63,0.25c0.84,0,1.56-0.76,2.16-2.28c0.34-0.93,0.51-1.69,0.51-2.28l0.63-3.3 c0.84,0.51,1.65,1.04,2.41,1.59c0.76,0.55,1.61,1.21,2.54,1.97c-0.25,1.1-0.59,2.33-1.01,3.68c-1.19,3.38-2.33,5.75-3.42,7.1 l-0.89-0.38c-0.09,0.34-0.55,0.74-1.4,1.21c-0.85,0.47-1.44,1.12-1.78,1.97c-3.64,1.44-7.29,2.5-10.97,3.17 C66.57,92.3,63.51,92.81,61.06,93.15z M61.06,93.27l-1.01-0.25c-2.11-0.51-3.17-1.22-3.17-2.16v-0.63c0-0.84,0.17-1.46,0.51-1.84 c0.34-0.38,0.74-0.68,1.21-0.89c0.46-0.21,0.87-0.49,1.21-0.82l4.69,1.65c0.76,0.34,1.61,0.51,2.54,0.51 c0.59,0,1.14-0.08,1.65-0.25l8.75-3.68c0.34-0.08,0.55-0.34,0.63-0.76c0-0.42-0.17-0.76-0.51-1.01l-5.96-4.31 c-4.14-2.96-7.02-5.16-8.63-6.6l-5.58-3.3l-1.78-1.78c-0.85-1.27-1.27-2.54-1.27-3.81c0-1.01,0.17-1.67,0.51-1.97 c0.34-0.3,0.59-0.57,0.76-0.82h4.06c0.25,0.51,0.57,1.1,0.95,1.78c0.38,0.68,0.61,1.31,0.7,1.9c0.76,2.37,1.44,3.93,2.03,4.69 c1.1,1.35,4.35,3.3,9.77,5.83c1.52,0.85,3,1.63,4.44,2.35c1.44,0.72,2.54,1.38,3.3,1.97c0.25,0.17,0.46,0.25,0.63,0.25 c0.84,0,1.56-0.76,2.16-2.28c0.34-0.93,0.51-1.69,0.51-2.28l0.63-3.3c0.84,0.51,1.65,1.04,2.41,1.58 c0.76,0.55,1.61,1.21,2.54,1.97c-0.25,1.1-0.59,2.33-1.01,3.68c-1.19,3.38-2.33,5.75-3.42,7.1l-0.89-0.38 c-0.09,0.34-0.55,0.74-1.4,1.21c-0.85,0.47-1.44,1.12-1.78,1.97c-3.64,1.44-7.29,2.5-10.97,3.17 C66.57,92.43,63.51,92.94,61.06,93.27z M56.87,44.31l5.96-0.25v-9.64l-5.96-0.25V44.31z M56.87,44.44l5.96-0.25v-9.64l-5.96-0.25 V44.44z M65.37,43.8l5.07-0.25v-8.63l-5.07-0.38V43.8z M65.37,43.93l5.07-0.25v-8.63l-5.07-0.38V43.93z M77.42,157.33 c-0.51,0-0.89-0.04-1.14-0.13l0.13-0.13c1.18-1.1,3.13-2.07,5.83-2.92c1.44-0.51,2.71-1.06,3.81-1.65l0.76-0.38 c1.02-0.17,2.07-1.39,3.17-3.68l0.76-1.65c0.76-1.94,1.65-6,2.66-12.18c0.84-5.5,1.42-8.86,1.71-10.08 c0.3-1.22,0.44-2.32,0.44-3.3c0-0.97,0.21-1.99,0.63-3.04c0.42-1.06,0.72-2.26,0.89-3.62l1.14-7.1c1.1-6.93,1.67-10.72,1.71-11.35 c0.04-0.63,0.11-1.16,0.19-1.58c0-0.34-0.08-0.61-0.25-0.83c-0.17-0.21-0.59-0.32-1.27-0.32c-0.68,0-1.06-0.04-1.14-0.13 c0-0.25,0.08-0.63,0.25-1.14c2.87-0.59,5.88-1.52,9.01-2.79l0.13-0.13v1.52c0.08,1.01,0.57,1.76,1.46,2.22 c0.89,0.47,1.65,0.76,2.28,0.89c0.63,0.13,0.99,0.28,1.08,0.44c3.55-0.51,5.69-0.87,6.41-1.08c0.72-0.21,1.42-0.36,2.09-0.44v0.13 l-0.25,0.13c-1.01,0-1.52,0.3-1.52,0.89l0.89,7.36c0.59,5.33,0.89,8.58,0.89,9.77c0,1.86-0.34,4.19-1.02,6.98 c-0.25,0.93-0.38,1.52-0.38,1.78c0,0.76,0.25,1.78,0.76,3.04l-2.92,16.74c-0.42-3.89-1.23-8.29-2.41-13.19l-1.14-3.3v-1.65 l0.38-3.04c0-0.84-0.34-1.27-1.01-1.27h-9.51c-0.42,0-0.7,0.17-0.83,0.51c-0.13,0.34-0.23,0.85-0.32,1.52l-0.63,4.95 c-0.51,4.06-1.14,7.48-1.9,10.27c-0.76,2.79-2.24,6.81-4.44,12.05c-0.85,2.28-1.35,4.27-1.52,5.96c-0.17,1.69-0.38,2.79-0.63,3.3 c-0.51,0.85-1.65,1.27-3.42,1.27c-3.64,0-6.55,0.08-8.75,0.25L77.42,157.33z M77.42,157.46c-0.51,0-0.89-0.04-1.14-0.13l0.13-0.13 c1.18-1.1,3.13-2.07,5.83-2.92c1.44-0.51,2.71-1.06,3.81-1.65l0.76-0.38c1.02-0.17,2.07-1.4,3.17-3.68l0.76-1.65 c0.76-1.94,1.65-6,2.66-12.18c0.84-5.5,1.42-8.86,1.71-10.08c0.3-1.22,0.44-2.32,0.44-3.3c0-0.97,0.21-1.99,0.63-3.04 c0.42-1.06,0.72-2.26,0.89-3.62l1.14-7.1c1.1-6.93,1.67-10.72,1.71-11.35c0.04-0.63,0.11-1.16,0.19-1.58 c0-0.34-0.08-0.61-0.25-0.83c-0.17-0.21-0.59-0.32-1.27-0.32c-0.68,0-1.06-0.04-1.14-0.13c0-0.25,0.08-0.63,0.25-1.14 c2.87-0.59,5.88-1.52,9.01-2.79l0.13-0.13v1.52c0.08,1.01,0.57,1.76,1.46,2.22c0.89,0.47,1.65,0.76,2.28,0.89 c0.63,0.13,0.99,0.28,1.08,0.44c3.55-0.51,5.69-0.87,6.41-1.08c0.72-0.21,1.42-0.36,2.09-0.44v0.13 c-0.09,0.08-0.42,0.13-1.02,0.13c-0.51,0.17-0.76,0.47-0.76,0.89l0.89,7.36c0.59,5.33,0.89,8.58,0.89,9.77 c0,1.86-0.34,4.19-1.02,6.98c-0.25,0.93-0.38,1.52-0.38,1.78c0,0.76,0.25,1.78,0.76,3.04l-2.92,16.74 c-0.42-3.89-1.23-8.29-2.41-13.19l-1.14-3.3v-1.65l0.38-3.04c0-0.84-0.34-1.27-1.01-1.27h-9.51c-0.42,0-0.7,0.17-0.83,0.51 c-0.13,0.34-0.23,0.85-0.32,1.52l-0.63,4.95c-0.51,4.06-1.14,7.48-1.9,10.27c-0.76,2.79-2.24,6.81-4.44,12.05 c-0.85,2.28-1.35,4.27-1.52,5.96c-0.17,1.69-0.38,2.79-0.63,3.3c-0.51,0.85-1.65,1.27-3.42,1.27c-3.64,0-6.55,0.08-8.75,0.25 L77.42,157.46z M86.04,93.15l-1.01-0.25c-1.95-0.42-3-1.14-3.17-2.16c0-1.18,0.13-1.9,0.38-2.16c0.34-0.59,0.76-0.99,1.27-1.21 c0.51-0.21,0.93-0.49,1.27-0.82l4.69,1.65c0.84,0.34,1.69,0.51,2.54,0.51c0.59,0,1.14-0.08,1.65-0.25l8.75-3.68 c0.34-0.08,0.55-0.34,0.63-0.76c0-0.42-0.13-0.76-0.38-1.01c-0.17,0-1.73-1.1-4.69-3.3c-0.51-0.25-0.93-0.55-1.27-0.89 c-4.23-3.21-6.41-4.84-6.53-4.88c-0.13-0.04-0.91-0.7-2.35-1.97c-1.1-0.51-2.09-1.06-2.98-1.65c-0.89-0.59-1.71-1.1-2.47-1.52 l-1.78-1.78c-0.85-1.35-1.27-2.71-1.27-4.06c0-0.84,0.17-1.42,0.51-1.71c0.34-0.3,0.59-0.57,0.76-0.82h4.06 c0.25,0.51,0.61,1.21,1.08,2.09c0.46,0.89,0.7,1.59,0.7,2.09l0.38,1.01c0.42,1.19,0.93,2.18,1.52,2.98 c0.59,0.8,1.69,1.71,3.3,2.73l6.47,3.3c1.52,0.85,3,1.63,4.44,2.35c1.44,0.72,2.54,1.38,3.3,1.97c0.25,0.17,0.51,0.25,0.76,0.25 c0.42,0,0.8-0.25,1.14-0.76c0.68-0.84,1.1-1.86,1.27-3.04l0.89-4.44c2.28,1.35,3.8,2.33,4.57,2.92l0.51,0.38 c-1.35,5.16-2.83,8.88-4.44,11.16l-0.25-0.13c-0.08,0.34-0.51,0.72-1.27,1.14c-0.76,0.42-1.31,0.93-1.65,1.52 c-0.25,0.17-0.55,0.3-0.89,0.38c-2.96,1.19-5.79,2.07-8.5,2.66L92.89,92C90.27,92.51,87.99,92.89,86.04,93.15z M86.04,93.27 l-1.01-0.25c-1.95-0.42-3-1.14-3.17-2.16c0-1.18,0.13-1.9,0.38-2.16c0.34-0.59,0.76-0.99,1.27-1.21c0.51-0.21,0.93-0.49,1.27-0.82 l4.69,1.65c0.84,0.34,1.69,0.51,2.54,0.51c0.59,0,1.14-0.08,1.65-0.25l8.75-3.68c0.34-0.08,0.55-0.34,0.63-0.76 c0-0.42-0.13-0.76-0.38-1.01c-0.17,0-1.73-1.1-4.69-3.3c-0.51-0.25-0.93-0.55-1.27-0.89c-4.23-3.21-6.41-4.84-6.53-4.88 c-0.13-0.04-0.91-0.7-2.35-1.97c-1.1-0.51-2.09-1.06-2.98-1.65c-0.89-0.59-1.71-1.1-2.47-1.52l-1.78-1.78 c-0.85-1.35-1.27-2.71-1.27-4.06c0-0.84,0.17-1.42,0.51-1.71c0.34-0.3,0.59-0.57,0.76-0.82h4.06c0.25,0.51,0.61,1.21,1.08,2.09 c0.46,0.89,0.7,1.59,0.7,2.09l0.38,1.02c0.42,1.19,0.93,2.18,1.52,2.98c0.59,0.8,1.69,1.71,3.3,2.73l6.47,3.3 c1.52,0.85,3,1.63,4.44,2.35c1.44,0.72,2.54,1.38,3.3,1.97c0.25,0.17,0.51,0.25,0.76,0.25c0.42,0,0.8-0.25,1.14-0.76 c0.68-0.84,1.1-1.86,1.27-3.04l0.89-4.44c2.28,1.35,3.8,2.33,4.57,2.92l0.51,0.38c-1.35,5.16-2.83,8.88-4.44,11.16l-0.25-0.13 c-0.08,0.34-0.51,0.72-1.27,1.14c-0.76,0.42-1.31,0.93-1.65,1.52c-0.25,0.17-0.55,0.3-0.89,0.38c-2.96,1.19-5.79,2.07-8.5,2.66 l-5.07,1.01C90.27,92.64,87.99,93.02,86.04,93.27z M106.59,78.18h-0.25c-1.86-1.27-4.48-2.75-7.86-4.44 c-5.5-2.71-8.67-4.57-9.51-5.58c-0.59-1.01-1.1-2.16-1.52-3.42c0.59-0.84,1.29-1.75,2.09-2.73c0.8-0.97,1.46-1.8,1.97-2.47 c0.51-0.68,0.76-1.27,0.76-1.78c0-0.34-0.04-0.63-0.13-0.89c-0.17-1.01-0.59-1.52-1.27-1.52c-0.34,0-0.59,0.02-0.76,0.06 c-0.17,0.04-0.59,0.21-1.27,0.51c-0.68,0.3-1.23,0.44-1.65,0.44c-0.17-0.17-0.36-0.44-0.57-0.82c-0.21-0.38-0.4-0.76-0.57-1.14 c-0.17-0.38-0.3-0.7-0.38-0.95v-0.38c0-0.59-0.25-0.97-0.76-1.14v-0.13c0-0.51-0.38-0.97-1.14-1.4l-0.89-0.13v-0.38 c0-0.34,0.1-0.91,0.32-1.71c0.21-0.8,0.53-2.13,0.95-4c0.42-2.11,0.84-3.85,1.27-5.2c1.01-2.87,2.07-4.9,3.17-6.09 c0.84-0.84,1.99-1.56,3.42-2.16c0.93-0.42,1.69-0.7,2.28-0.82c0.59-0.13,1.48-0.19,2.66-0.19c2.03,0,3.51,0.3,4.44,0.89 c0.93,0.59,1.73,1.73,2.41,3.42c0.25,0.68,0.42,1.31,0.51,1.9c0.08,0.59,0.13,1.48,0.13,2.66c0,2.62-0.85,5.29-2.54,7.99 c-0.68,1.19-1.02,2.03-1.02,2.54l0.13,1.52c0.51,2.03,1.48,3.09,2.92,3.17l0.51,0.13c2.11,0.85,3.85,2.66,5.2,5.45h-3.68 c-0.08,0.34-0.34,0.63-0.76,0.89c-0.59,0.59-0.89,1.48-0.89,2.66v1.4c0.08,1.27,1.23,3.04,3.42,5.33l1.4,0.76 c-0.34,1.35-0.61,2.6-0.82,3.74c-0.21,1.14-0.49,2.09-0.82,2.85C107.14,77.8,106.85,78.18,106.59,78.18z M106.59,78.31h-0.25 c-1.86-1.27-4.48-2.75-7.86-4.44c-5.5-2.71-8.67-4.57-9.51-5.58c-0.59-1.01-1.1-2.16-1.52-3.42c0.59-0.84,1.29-1.75,2.09-2.73 c0.8-0.97,1.46-1.8,1.97-2.47c0.51-0.68,0.76-1.27,0.76-1.78c0-0.34-0.04-0.63-0.13-0.89c-0.17-1.01-0.59-1.52-1.27-1.52 c-0.34,0-0.59,0.02-0.76,0.06c-0.17,0.04-0.59,0.21-1.27,0.51c-0.68,0.3-1.23,0.44-1.65,0.44c-0.17-0.17-0.36-0.44-0.57-0.82 c-0.21-0.38-0.4-0.76-0.57-1.14c-0.17-0.38-0.3-0.7-0.38-0.95v-0.38c0-0.59-0.25-0.97-0.76-1.14v-0.13c0-0.51-0.38-0.97-1.14-1.4 l-0.89-0.13v-0.38c0-0.34,0.1-0.91,0.32-1.71c0.21-0.8,0.53-2.13,0.95-4c0.42-2.11,0.84-3.85,1.27-5.2 c1.01-2.87,2.07-4.9,3.17-6.09c0.84-0.84,1.99-1.56,3.42-2.16c0.93-0.42,1.69-0.7,2.28-0.82c0.59-0.13,1.48-0.19,2.66-0.19 c2.03,0,3.51,0.3,4.44,0.89c0.93,0.59,1.73,1.73,2.41,3.42c0.25,0.68,0.42,1.31,0.51,1.9c0.08,0.59,0.13,1.48,0.13,2.66 c0,2.62-0.85,5.29-2.54,7.99c-0.68,1.19-1.02,2.03-1.02,2.54l0.13,1.52c0.51,2.03,1.48,3.09,2.92,3.17l0.51,0.13 c2.11,0.85,3.85,2.66,5.2,5.45h-3.68c-0.08,0.34-0.34,0.63-0.76,0.89c-0.59,0.59-0.89,1.48-0.89,2.66v1.4 c0.08,1.27,1.23,3.04,3.42,5.33l1.4,0.76c-0.34,1.35-0.61,2.6-0.82,3.74c-0.21,1.14-0.49,2.09-0.82,2.85 C107.14,77.92,106.85,78.31,106.59,78.31z M96.95,86.04c-0.17-0.08-0.25-0.17-0.25-0.25c0-0.08,0.1-0.27,0.32-0.57 c0.21-0.3,0.4-0.44,0.57-0.44c0.51,0,0.93-0.29,1.27-0.89c0.17-0.34,0.25-0.68,0.25-1.01c0-0.42-0.13-0.89-0.38-1.4l3.42,2.41 L96.95,86.04z M96.95,86.17c-0.17-0.08-0.25-0.17-0.25-0.25c0-0.08,0.1-0.27,0.32-0.57c0.21-0.3,0.4-0.44,0.57-0.44 c0.51,0,0.93-0.29,1.27-0.89c0.17-0.34,0.25-0.68,0.25-1.01c0-0.42-0.13-0.89-0.38-1.4l3.42,2.41L96.95,86.17z M102.53,157.33 h-0.13c-0.51,0-0.89-0.04-1.14-0.13l0.13-0.13c1.18-1.1,3.13-2.07,5.83-2.92c1.27-0.34,2.54-0.89,3.81-1.65l0.76-0.38 c1.1-0.17,2.2-1.39,3.3-3.68c0.51-1.02,0.84-1.94,1.01-2.79c0.17-0.42,0.32-0.87,0.44-1.33c0.13-0.46,0.23-0.95,0.32-1.46 l1.52-8.24c0.84-5.5,1.44-8.84,1.78-10.02l0.38-1.78v-1.52c0-1.01,0.21-1.99,0.63-2.92c0.17-0.51,0.34-1.08,0.51-1.71 c0.17-0.63,0.42-2.13,0.76-4.5l0.76-4.69c1.1-6.93,1.67-10.72,1.71-11.35c0.04-0.63,0.11-1.16,0.19-1.58 c0-0.34-0.08-0.61-0.25-0.83c-0.17-0.21-0.59-0.32-1.27-0.32c-0.68,0-1.06-0.04-1.14-0.13l0.25-1.01 c3.21-0.59,6.51-1.56,9.89-2.92c1.61-0.68,2.87-1.52,3.8-2.54c1.27-1.27,2.54-3.8,3.81-7.61c0.25,1.27,0.68,1.9,1.27,1.9h0.13 c0.17,0,0.38,0.06,0.63,0.19c0.25,0.13,0.51,0.23,0.76,0.32l-0.13,0.89c0,0.42,0.13,0.85,0.38,1.27c0.25,0.42,0.68,0.63,1.27,0.63 l0.38,0.13c0.34,0.42,0.51,0.72,0.51,0.89c0,0.08-0.17,0.19-0.51,0.32c-0.34,0.13-0.66,0.3-0.95,0.51 c-0.3,0.21-0.44,0.53-0.44,0.95c0,0.08,0.19,0.78,0.57,2.09c0.38,1.31,0.65,2.18,0.82,2.6c0.17,0.42,0.25,0.76,0.25,1.01 l-0.25,0.13c-1.01,0-1.52,0.3-1.52,0.89l0.89,7.36c0.59,5.33,0.89,8.58,0.89,9.77c0,0.68-0.02,1.38-0.06,2.09 c-0.04,0.72-0.23,1.63-0.57,2.73l-0.63,3.93c0,0.25,0.04,0.59,0.13,1.01c0.08,0.42,0.19,0.85,0.32,1.27 c0.13,0.42,0.23,0.78,0.32,1.08c0.08,0.3,0.17,0.44,0.25,0.44l0.25,0.89c-0.51,2.11-1.1,5.45-1.78,10.02 c-0.68,3.89-1.18,6.6-1.52,8.12c-0.34-5.16-1.19-10.57-2.54-16.24c-0.42-1.44-0.85-2.54-1.27-3.3v-1.65l0.38-3.04 c0-0.84-0.34-1.27-1.01-1.27h-9.51c-0.42,0-0.72,0.23-0.89,0.7c-0.17,0.47-0.34,1.8-0.51,4c0,0.08-0.04,0.13-0.13,0.13l-0.25,2.16 c-0.42,3.47-0.93,6.39-1.52,8.75c-0.68,2.79-1.82,6.17-3.42,10.15c-0.42,1.27-0.89,2.41-1.4,3.42c-0.85,2.28-1.35,4.27-1.52,5.96 c-0.17,1.69-0.38,2.79-0.63,3.3c-0.51,0.85-1.65,1.27-3.42,1.27c-3.64,0-6.55,0.08-8.75,0.25h-2.16L102.53,157.33z M102.53,157.46 h-0.13c-0.51,0-0.89-0.04-1.14-0.13l0.13-0.13c1.18-1.1,3.13-2.07,5.83-2.92c1.27-0.34,2.54-0.89,3.81-1.65l0.76-0.38 c1.1-0.17,2.2-1.4,3.3-3.68c0.51-1.01,0.84-1.94,1.01-2.79c0.17-0.42,0.32-0.87,0.44-1.33c0.13-0.46,0.23-0.95,0.32-1.46 l1.52-8.24c0.84-5.5,1.44-8.84,1.78-10.02l0.38-1.78v-1.52c0-1.01,0.21-1.99,0.63-2.92c0.17-0.51,0.34-1.08,0.51-1.71 c0.17-0.63,0.42-2.13,0.76-4.5l0.76-4.69c1.1-6.93,1.67-10.72,1.71-11.35c0.04-0.63,0.11-1.16,0.19-1.58 c0-0.34-0.08-0.61-0.25-0.83c-0.17-0.21-0.59-0.32-1.27-0.32c-0.68,0-1.06-0.04-1.14-0.13l0.25-1.01 c3.21-0.59,6.51-1.56,9.89-2.92c1.61-0.68,2.87-1.52,3.8-2.54c1.27-1.27,2.54-3.8,3.81-7.61c0.25,1.27,0.68,1.9,1.27,1.9h0.13 c0.17,0,0.38,0.06,0.63,0.19c0.25,0.13,0.51,0.23,0.76,0.32l-0.13,0.89c0,0.42,0.13,0.85,0.38,1.27c0.25,0.42,0.68,0.63,1.27,0.63 l0.38,0.13c0.34,0.42,0.51,0.72,0.51,0.89c0,0.08-0.17,0.19-0.51,0.32c-0.34,0.13-0.66,0.3-0.95,0.51 c-0.3,0.21-0.44,0.53-0.44,0.95c0,0.08,0.19,0.78,0.57,2.09c0.38,1.31,0.65,2.18,0.82,2.6c0.17,0.42,0.25,0.76,0.25,1.01 c-0.09,0.08-0.42,0.13-1.01,0.13c-0.51,0.17-0.76,0.47-0.76,0.89l0.89,7.36c0.59,5.33,0.89,8.58,0.89,9.77 c0,0.68-0.02,1.38-0.06,2.09c-0.04,0.72-0.23,1.63-0.57,2.73l-0.63,3.93c0,0.25,0.04,0.59,0.13,1.01 c0.08,0.42,0.19,0.85,0.32,1.27c0.13,0.42,0.23,0.78,0.32,1.08c0.08,0.3,0.17,0.44,0.25,0.44l0.25,0.89 c-0.51,2.12-1.1,5.46-1.78,10.02c-0.68,3.89-1.18,6.6-1.52,8.12c-0.34-5.16-1.19-10.57-2.54-16.24c-0.42-1.44-0.85-2.54-1.27-3.3 v-1.65l0.38-3.04c0-0.84-0.34-1.27-1.01-1.27h-9.51c-0.42,0-0.72,0.23-0.89,0.7c-0.17,0.47-0.34,1.8-0.51,4 c0,0.08-0.04,0.13-0.13,0.13l-0.25,2.16c-0.42,3.47-0.93,6.39-1.52,8.75c-0.68,2.79-1.82,6.17-3.42,10.15 c-0.42,1.27-0.89,2.41-1.4,3.42c-0.85,2.28-1.35,4.27-1.52,5.96c-0.17,1.69-0.38,2.79-0.63,3.3c-0.51,0.85-1.65,1.27-3.42,1.27 c-3.64,0-6.55,0.08-8.75,0.25h-2.16L102.53,157.46z M114.58,158.34c-5.75,0-9.22-0.04-10.4-0.13h1.27 c2.28-0.17,5.16-0.25,8.63-0.25c2.2,0,3.63-0.59,4.31-1.78c0.34-0.59,0.59-1.82,0.76-3.68c0.17-1.44,0.59-3.13,1.27-5.07 l-0.13,3.42c0,0.93,0.06,1.88,0.19,2.85c0.13,0.97,0.19,1.71,0.19,2.22c0,0.76-0.08,1.27-0.25,1.52 C119.83,158.05,117.88,158.34,114.58,158.34z M114.58,158.47c-5.75,0-9.22-0.04-10.4-0.13h1.27c2.28-0.17,5.16-0.25,8.63-0.25 c2.2,0,3.63-0.59,4.31-1.78c0.34-0.59,0.59-1.82,0.76-3.68c0.17-1.44,0.59-3.13,1.27-5.07l-0.13,3.42c0,0.93,0.06,1.88,0.19,2.85 c0.13,0.97,0.19,1.71,0.19,2.22c0,0.76-0.08,1.27-0.25,1.52C119.83,158.18,117.88,158.47,114.58,158.47z M165.45,158.34h-2.41 c-5.58,0-8.5-0.13-8.75-0.38v-0.13c0.25-0.76,1.52-1.44,3.8-2.03c2.87-0.68,4.97-1.31,6.28-1.9c1.31-0.59,2.26-1.52,2.85-2.79 c0.51-0.84,0.76-1.78,0.76-2.79c0-5.83-0.68-11.92-2.03-18.27c-0.42-1.61-0.72-2.83-0.89-3.68c-0.17-0.84-0.34-1.52-0.51-2.03 c-0.42-0.93-0.63-1.52-0.63-1.78v-1.14l0.38-3.04c0-0.84-0.34-1.27-1.01-1.27h-9.51c-0.42,0-0.72,0.23-0.89,0.7 c-0.17,0.47-0.34,1.8-0.51,4l-0.13,0.13L152,124.1c-0.42,3.81-1,7.06-1.71,9.77c-0.72,2.71-2.14,6.64-4.25,11.8 c-0.08,0-0.15,0.06-0.19,0.19c-0.04,0.13-0.11,0.32-0.19,0.57c-0.08,0.25-0.17,0.47-0.25,0.63c-0.68,2.11-1.1,3.95-1.27,5.52 c-0.17,1.57-0.38,2.6-0.63,3.11c-0.51,0.85-1.65,1.27-3.42,1.27c-3.64,0-6.55,0.08-8.75,0.25c-1.01,0-1.82,0.04-2.41,0.13h-1.27 l-0.51-0.13l0.13-0.13c1.18-1.1,3.13-2.07,5.83-2.92c1.27-0.34,2.54-0.89,3.81-1.65l0.76-0.38c1.35-0.34,2.54-1.78,3.55-4.31 l0.38-1.14c0.76-1.52,1.65-5.54,2.66-12.05c0.51-3.55,0.97-6.3,1.39-8.25c0.08-0.42,0.15-0.8,0.19-1.14 c0.04-0.34,0.11-0.55,0.19-0.63v-0.13c0.25-0.68,0.38-1.73,0.38-3.17c0-1.01,0.21-1.99,0.63-2.92c0.51-1.52,0.93-3.59,1.27-6.22 l0.76-4.69c1.1-6.93,1.67-10.72,1.71-11.35c0.04-0.63,0.1-1.16,0.19-1.58c0-0.34-0.09-0.61-0.25-0.83 c-0.17-0.21-0.59-0.32-1.27-0.32c-0.68,0-1.06-0.04-1.14-0.13l1.4-5.71c0-0.34-0.17-0.68-0.51-1.01c-0.85-0.34-1.4-0.59-1.65-0.76 c0-0.08,0.1-0.27,0.32-0.57c0.21-0.3,0.4-0.44,0.57-0.44c0.51,0,0.93-0.29,1.27-0.89c0.17-0.34,0.25-0.68,0.25-1.01 c0-0.59-0.17-1.22-0.51-1.9c-0.17-0.25-0.36-0.65-0.57-1.21c-0.21-0.55-0.44-1.12-0.7-1.71c-0.51-1.69-0.97-2.96-1.4-3.81 c-0.42-0.84-0.97-1.56-1.65-2.16c-0.68-0.59-1.4-0.89-2.16-0.89c-1.01,0-1.65,0.55-1.9,1.65l-0.51,2.28l-0.63,2.03 c-1.35,4.4-2.75,7.36-4.19,8.88c-0.85,0.93-1.99,1.69-3.42,2.28c-3.21,1.35-6.34,2.33-9.39,2.92h-0.51 c-0.09,0.08-0.21,0.13-0.38,0.13h-0.38c-0.08,0.09-0.21,0.13-0.38,0.13c-0.17,0-0.34,0.04-0.51,0.13h-0.51l-0.38,0.13 c-1.44,0.25-2.58,0.51-3.42,0.76l-4.57,0.63l-1.01-0.25c-2.12-0.51-3.17-1.22-3.17-2.16V90.1c0-1.27,0.59-2.2,1.78-2.79 c0.42-0.17,0.8-0.42,1.14-0.76l4.69,1.65c0.84,0.34,1.99,0.51,3.42,0.51l0.89-0.38c2.87-1.1,5.75-2.28,8.63-3.55 c0.34-0.08,0.55-0.34,0.63-0.76c0-0.42-0.08-0.7-0.25-0.82c-0.17-0.13-0.8-0.59-1.9-1.4c-1.1-0.8-2.45-1.75-4.06-2.85 c-0.59-0.34-1.01-0.68-1.27-1.01c-3.72-2.62-5.67-4.04-5.83-4.25c-0.17-0.21-0.3-0.36-0.38-0.44c-0.17-0.17-0.36-0.32-0.57-0.44 c-0.21-0.13-0.42-0.3-0.63-0.51c-0.21-0.21-0.36-0.32-0.44-0.32l-4.19-2.41c-1.01-0.76-1.99-1.61-2.92-2.54 c-0.85-1.35-1.27-2.71-1.27-4.06c0-0.84,0.17-1.42,0.51-1.71c0.34-0.3,0.59-0.57,0.76-0.82h4.06c0.17,0.42,0.4,0.85,0.7,1.27 c0.3,0.42,0.57,1.1,0.83,2.03l0.25,0.51c0,0.68,0.3,1.52,0.89,2.54c0.25,0.76,0.59,1.44,1.01,2.03c0.59,0.68,1.69,1.52,3.3,2.54 l2.03,1.14c1.27,0.59,2.71,1.31,4.31,2.16c1.61,0.85,3.13,1.63,4.57,2.35c1.44,0.72,2.54,1.38,3.3,1.97 c0.25,0.17,0.51,0.25,0.76,0.25c0.76,0,1.44-0.76,2.03-2.28c0.34-0.93,0.51-1.69,0.51-2.28c0.84-4.99,1.78-7.99,2.79-9.01 c0.25-0.42,1.78-2.41,4.57-5.96c0.51-0.76,0.76-1.4,0.76-1.9c0-0.34-0.04-0.63-0.13-0.89c-0.17-1.01-0.59-1.52-1.27-1.52 c-0.34,0-0.59,0.02-0.76,0.06c-0.17,0.04-0.59,0.21-1.27,0.51c-0.68,0.3-1.23,0.44-1.65,0.44c-0.17-0.17-0.36-0.44-0.57-0.82 c-0.21-0.38-0.4-0.76-0.57-1.14c-0.17-0.38-0.3-0.7-0.38-0.95v-0.38c0-0.59-0.25-0.97-0.76-1.14v-0.13c0-0.51-0.38-0.97-1.14-1.4 l-0.89-0.13c0-0.76,0.08-1.42,0.25-1.97c0.17-0.55,0.25-0.95,0.25-1.21c0.42-1.35,0.89-3.21,1.4-5.58 c0.08-0.93,0.59-2.58,1.52-4.95c1.27-2.79,3.17-4.73,5.71-5.83c0.93-0.42,1.69-0.7,2.28-0.82c0.59-0.13,1.48-0.19,2.66-0.19 c2.03,0,3.51,0.3,4.44,0.89c0.93,0.59,1.73,1.73,2.41,3.42c0.25,0.68,0.42,1.31,0.51,1.9c0.08,0.59,0.13,1.48,0.13,2.66 c0,2.62-0.85,5.29-2.54,7.99c-0.68,1.19-1.01,2.03-1.01,2.54l0.13,1.52c0.59,2.03,1.56,3.09,2.92,3.17l0.51,0.13 c2.11,0.85,3.85,2.66,5.2,5.45c3.38,7.44,5.2,13.7,5.46,18.77c0.08,0.76,0.25,1.52,0.51,2.28c0.17,0.42,0.51,0.63,1.01,0.63 c0.17,0,0.38,0.06,0.63,0.19c0.25,0.13,0.51,0.23,0.76,0.32l-0.13,0.89c0,0.42,0.13,0.85,0.38,1.27c0.25,0.42,0.68,0.63,1.27,0.63 l0.38,0.13c0.34,0.42,0.51,0.72,0.51,0.89c0,0.08-0.17,0.19-0.51,0.32c-0.34,0.13-0.66,0.3-0.95,0.51 c-0.3,0.21-0.44,0.53-0.44,0.95c0,0.08,0.19,0.78,0.57,2.09c0.38,1.31,0.65,2.18,0.82,2.6c0.17,0.42,0.25,0.76,0.25,1.01 l-0.25,0.13c-1.01,0-1.52,0.3-1.52,0.89l0.89,7.36c0.59,5.33,0.89,8.58,0.89,9.77c0,0.68-0.02,1.38-0.06,2.09 c-0.04,0.72-0.23,1.63-0.57,2.73l-0.63,3.93c0,0.51,0.17,1.27,0.51,2.28l0.38,1.52c0.59,1.61,1.02,3.21,1.27,4.82 c0.08,1.1,0.13,2.45,0.13,4.06c0,3.21-0.25,7.91-0.76,14.08l-0.13,3.93c0,1.1,0.08,2.18,0.25,3.23c0.17,1.06,0.25,1.88,0.25,2.47 c0,0.59-0.09,1.01-0.25,1.27C170.73,158.05,168.75,158.34,165.45,158.34z M165.45,158.47h-2.41c-5.58,0-8.5-0.13-8.75-0.38v-0.13 c0.25-0.76,1.52-1.44,3.8-2.03c2.87-0.68,4.97-1.31,6.28-1.9c1.31-0.59,2.26-1.52,2.85-2.79c0.51-0.84,0.76-1.78,0.76-2.79 c0-5.83-0.68-11.92-2.03-18.27c-0.42-1.61-0.72-2.83-0.89-3.68c-0.17-0.84-0.34-1.52-0.51-2.03c-0.42-0.93-0.63-1.52-0.63-1.78 v-1.14l0.38-3.04c0-0.84-0.34-1.27-1.01-1.27h-9.51c-0.42,0-0.72,0.23-0.89,0.7c-0.17,0.47-0.34,1.8-0.51,4l-0.13,0.13l-0.25,2.16 c-0.42,3.8-1,7.06-1.71,9.77c-0.72,2.71-2.14,6.64-4.25,11.8c-0.08,0-0.15,0.06-0.19,0.19c-0.04,0.13-0.11,0.32-0.19,0.57 c-0.08,0.25-0.17,0.47-0.25,0.63c-0.68,2.11-1.1,3.95-1.27,5.52c-0.17,1.57-0.38,2.6-0.63,3.11c-0.51,0.85-1.65,1.27-3.42,1.27 c-3.64,0-6.55,0.08-8.75,0.25c-1.01,0-1.82,0.04-2.41,0.13h-1.27l-0.51-0.13l0.13-0.13c1.18-1.1,3.13-2.07,5.83-2.92 c1.27-0.34,2.54-0.89,3.81-1.65l0.76-0.38c1.35-0.34,2.54-1.78,3.55-4.31l0.38-1.14c0.76-1.52,1.65-5.54,2.66-12.05 c0.51-3.55,0.97-6.3,1.39-8.25c0.08-0.42,0.15-0.8,0.19-1.14c0.04-0.34,0.11-0.55,0.19-0.63v-0.13c0.25-0.68,0.38-1.73,0.38-3.17 c0-1.01,0.21-1.99,0.63-2.92c0.51-1.52,0.93-3.59,1.27-6.22l0.76-4.69c1.1-6.93,1.67-10.72,1.71-11.35 c0.04-0.63,0.1-1.16,0.19-1.58c0-0.34-0.09-0.61-0.25-0.83c-0.17-0.21-0.59-0.32-1.27-0.32c-0.68,0-1.06-0.04-1.14-0.13l1.4-5.71 c0-0.34-0.17-0.68-0.51-1.01c-0.85-0.34-1.4-0.59-1.65-0.76c0-0.08,0.1-0.27,0.32-0.57c0.21-0.3,0.4-0.44,0.57-0.44 c0.51,0,0.93-0.29,1.27-0.89c0.17-0.34,0.25-0.68,0.25-1.01c0-0.59-0.17-1.22-0.51-1.9c-0.17-0.25-0.36-0.65-0.57-1.21 c-0.21-0.55-0.44-1.12-0.7-1.71c-0.51-1.69-0.97-2.96-1.4-3.81c-0.42-0.84-0.97-1.56-1.65-2.16c-0.68-0.59-1.4-0.89-2.16-0.89 c-1.01,0-1.65,0.55-1.9,1.65l-0.51,2.28l-0.63,2.03c-1.35,4.4-2.75,7.36-4.19,8.88c-0.85,0.93-1.99,1.69-3.42,2.28 c-3.21,1.35-6.34,2.33-9.39,2.92h-0.51c-0.09,0.09-0.21,0.13-0.38,0.13h-0.38c-0.08,0.09-0.21,0.13-0.38,0.13 c-0.17,0-0.34,0.04-0.51,0.13h-0.51l-0.38,0.13c-1.44,0.25-2.58,0.51-3.42,0.76l-4.57,0.63l-1.01-0.25 c-2.12-0.51-3.17-1.22-3.17-2.16v-0.63c0-1.27,0.59-2.2,1.78-2.79c0.42-0.17,0.8-0.42,1.14-0.76l4.69,1.65 c0.84,0.34,1.99,0.51,3.42,0.51l0.89-0.38c2.87-1.1,5.75-2.28,8.63-3.55c0.34-0.08,0.55-0.34,0.63-0.76c0-0.42-0.08-0.7-0.25-0.83 c-0.17-0.13-0.8-0.59-1.9-1.39c-1.1-0.8-2.45-1.75-4.06-2.85c-0.59-0.34-1.01-0.68-1.27-1.01c-3.72-2.62-5.67-4.04-5.83-4.25 c-0.17-0.21-0.3-0.36-0.38-0.44c-0.17-0.17-0.36-0.32-0.57-0.44c-0.21-0.13-0.42-0.3-0.63-0.51c-0.21-0.21-0.36-0.32-0.44-0.32 l-4.19-2.41c-1.01-0.76-1.99-1.61-2.92-2.54c-0.85-1.35-1.27-2.71-1.27-4.06c0-0.84,0.17-1.42,0.51-1.71 c0.34-0.3,0.59-0.57,0.76-0.82h4.06c0.17,0.42,0.4,0.85,0.7,1.27c0.3,0.42,0.57,1.1,0.83,2.03l0.25,0.51 c0,0.68,0.3,1.52,0.89,2.54c0.25,0.76,0.59,1.44,1.01,2.03c0.59,0.68,1.69,1.52,3.3,2.54l2.03,1.14c1.27,0.59,2.71,1.31,4.31,2.16 c1.61,0.85,3.13,1.63,4.57,2.35c1.44,0.72,2.54,1.38,3.3,1.97c0.25,0.17,0.51,0.25,0.76,0.25c0.76,0,1.44-0.76,2.03-2.28 c0.34-0.93,0.51-1.69,0.51-2.28c0.84-4.99,1.78-7.99,2.79-9.01c0.25-0.42,1.78-2.41,4.57-5.96c0.51-0.76,0.76-1.4,0.76-1.9 c0-0.34-0.04-0.63-0.13-0.89c-0.17-1.01-0.59-1.52-1.27-1.52c-0.34,0-0.59,0.02-0.76,0.06c-0.17,0.04-0.59,0.21-1.27,0.51 c-0.68,0.3-1.23,0.44-1.65,0.44c-0.17-0.17-0.36-0.44-0.57-0.82c-0.21-0.38-0.4-0.76-0.57-1.14c-0.17-0.38-0.3-0.7-0.38-0.95 v-0.38c0-0.59-0.25-0.97-0.76-1.14v-0.13c0-0.51-0.38-0.97-1.14-1.4l-0.89-0.13c0-0.76,0.08-1.42,0.25-1.97 c0.17-0.55,0.25-0.95,0.25-1.21c0.42-1.35,0.89-3.21,1.4-5.58c0.08-0.93,0.59-2.58,1.52-4.95c1.27-2.79,3.17-4.73,5.71-5.83 c0.93-0.42,1.69-0.7,2.28-0.82c0.59-0.13,1.48-0.19,2.66-0.19c2.03,0,3.51,0.3,4.44,0.89c0.93,0.59,1.73,1.73,2.41,3.42 c0.25,0.68,0.42,1.31,0.51,1.9c0.08,0.59,0.13,1.48,0.13,2.66c0,2.62-0.85,5.29-2.54,7.99c-0.68,1.19-1.01,2.03-1.01,2.54 l0.13,1.52c0.59,2.03,1.56,3.09,2.92,3.17l0.51,0.13c2.11,0.85,3.85,2.66,5.2,5.45c3.38,7.44,5.2,13.7,5.46,18.77 c0.08,0.76,0.25,1.52,0.51,2.28c0.17,0.42,0.51,0.63,1.01,0.63c0.17,0,0.38,0.06,0.63,0.19c0.25,0.13,0.51,0.23,0.76,0.32 l-0.13,0.89c0,0.42,0.13,0.85,0.38,1.27c0.25,0.42,0.68,0.63,1.27,0.63l0.38,0.13c0.34,0.42,0.51,0.72,0.51,0.89 c0,0.08-0.17,0.19-0.51,0.32c-0.34,0.13-0.66,0.3-0.95,0.51c-0.3,0.21-0.44,0.53-0.44,0.95c0,0.08,0.19,0.78,0.57,2.09 c0.38,1.31,0.65,2.18,0.82,2.6c0.17,0.42,0.25,0.76,0.25,1.01c-0.08,0.08-0.42,0.13-1.01,0.13c-0.51,0.17-0.76,0.47-0.76,0.89 l0.89,7.36c0.59,5.33,0.89,8.58,0.89,9.77c0,0.68-0.02,1.38-0.06,2.09c-0.04,0.72-0.23,1.63-0.57,2.73l-0.63,3.93 c0,0.51,0.17,1.27,0.51,2.28l0.38,1.52c0.59,1.61,1.02,3.21,1.27,4.82c0.08,1.1,0.13,2.45,0.13,4.06c0,3.21-0.25,7.91-0.76,14.08 l-0.13,3.93c0,1.1,0.08,2.18,0.25,3.23c0.17,1.06,0.25,1.88,0.25,2.47c0,0.59-0.09,1.01-0.25,1.27 C170.73,158.18,168.75,158.47,165.45,158.47z M132.47,78.18h-0.25c-1.86-1.27-4.48-2.75-7.86-4.44c-5.5-2.71-8.67-4.57-9.51-5.58 c-0.42-0.68-1.01-2.07-1.78-4.19l3.42-4.31c0.51-0.76,0.76-1.4,0.76-1.9c0-0.34-0.04-0.63-0.13-0.89 c-0.17-1.01-0.59-1.52-1.27-1.52c-0.34,0-0.59,0.02-0.76,0.06c-0.17,0.04-0.59,0.21-1.27,0.51c-0.68,0.3-1.23,0.44-1.65,0.44 c-0.17-0.17-0.36-0.44-0.57-0.82c-0.21-0.38-0.4-0.76-0.57-1.14c-0.17-0.38-0.3-0.7-0.38-0.95v-0.38c0-0.59-0.25-0.97-0.76-1.14 v-0.13c0-0.51-0.38-0.97-1.14-1.4l-0.89-0.13c0-0.76,0.08-1.42,0.25-1.97c0.17-0.55,0.25-0.95,0.25-1.21 c0.42-1.35,0.89-3.21,1.4-5.58c0.08-0.93,0.59-2.58,1.52-4.95c1.27-2.79,3.17-4.73,5.71-5.83c0.93-0.42,1.69-0.7,2.28-0.82 c0.59-0.13,1.48-0.19,2.66-0.19c2.03,0,3.51,0.3,4.44,0.89c0.93,0.59,1.73,1.73,2.41,3.42c0.25,0.68,0.42,1.31,0.51,1.9 c0.08,0.59,0.13,1.48,0.13,2.66c0,2.62-0.85,5.29-2.54,7.99c-0.68,1.19-1.01,2.03-1.01,2.54l0.13,1.52 c0.59,2.03,1.56,3.09,2.92,3.17c0.17,0,0.59,0.17,1.27,0.51c2.62,1.19,4.9,4.74,6.85,10.65l-0.76,1.27 c-0.93,2.28-1.65,4.99-2.16,8.12c-0.17,1.01-0.42,1.9-0.76,2.66C133.02,77.8,132.72,78.18,132.47,78.18z M132.47,78.31h-0.25 c-1.86-1.27-4.48-2.75-7.86-4.44c-5.5-2.71-8.67-4.57-9.51-5.58c-0.42-0.68-1.01-2.07-1.78-4.19l3.42-4.31 c0.51-0.76,0.76-1.4,0.76-1.9c0-0.34-0.04-0.63-0.13-0.89c-0.17-1.01-0.59-1.52-1.27-1.52c-0.34,0-0.59,0.02-0.76,0.06 c-0.17,0.04-0.59,0.21-1.27,0.51c-0.68,0.3-1.23,0.44-1.65,0.44c-0.17-0.17-0.36-0.44-0.57-0.82c-0.21-0.38-0.4-0.76-0.57-1.14 c-0.17-0.38-0.3-0.7-0.38-0.95v-0.38c0-0.59-0.25-0.97-0.76-1.14v-0.13c0-0.51-0.38-0.97-1.14-1.4l-0.89-0.13 c0-0.76,0.08-1.42,0.25-1.97c0.17-0.55,0.25-0.95,0.25-1.21c0.42-1.35,0.89-3.21,1.4-5.58c0.08-0.93,0.59-2.58,1.52-4.95 c1.27-2.79,3.17-4.73,5.71-5.83c0.93-0.42,1.69-0.7,2.28-0.82c0.59-0.13,1.48-0.19,2.66-0.19c2.03,0,3.51,0.3,4.44,0.89 c0.93,0.59,1.73,1.73,2.41,3.42c0.25,0.68,0.42,1.31,0.51,1.9c0.08,0.59,0.13,1.48,0.13,2.66c0,2.62-0.85,5.29-2.54,7.99 c-0.68,1.19-1.01,2.03-1.01,2.54l0.13,1.52c0.59,2.03,1.56,3.09,2.92,3.17c0.17,0,0.59,0.17,1.27,0.51 c2.62,1.19,4.9,4.74,6.85,10.66l-0.76,1.27c-0.93,2.28-1.65,4.99-2.16,8.12c-0.17,1.01-0.42,1.9-0.76,2.66 C133.02,77.92,132.72,78.31,132.47,78.31z M118.52,87.69c-1.27,0-2.24-0.13-2.92-0.38l-4.19-1.52c0.59-0.84,1.18-1.97,1.78-3.36 c0.59-1.4,1.18-3.06,1.78-5.01l0.13,0.76c0.25,1.95,0.61,2.92,1.08,2.92c0.46,0,0.82,0.06,1.08,0.19s0.51,0.23,0.76,0.32 l-0.13,0.89c0,0.42,0.13,0.85,0.38,1.27c0.25,0.42,0.63,0.63,1.14,0.63h0.13c0.08,0,0.19,0.06,0.32,0.19s0.25,0.28,0.38,0.44 c0.13,0.17,0.19,0.3,0.19,0.38c-0.08,0.08-0.42,0.28-1.01,0.57c-0.59,0.3-0.91,0.57-0.95,0.82c-0.04,0.25-0.06,0.51-0.06,0.76 L118.52,87.69z M118.52,87.82c-1.27,0-2.24-0.13-2.92-0.38l-4.19-1.52c0.59-0.84,1.18-1.97,1.78-3.36 c0.59-1.4,1.18-3.06,1.78-5.01l0.13,0.76c0.25,1.95,0.61,2.92,1.08,2.92c0.46,0,0.82,0.06,1.08,0.19s0.51,0.23,0.76,0.32 l-0.13,0.89c0,0.42,0.13,0.85,0.38,1.27c0.25,0.42,0.63,0.63,1.14,0.63h0.13c0.08,0,0.19,0.06,0.32,0.19s0.25,0.28,0.38,0.44 c0.13,0.17,0.19,0.3,0.19,0.38c-0.08,0.08-0.42,0.28-1.01,0.57c-0.59,0.3-0.91,0.57-0.95,0.82c-0.04,0.25-0.06,0.51-0.06,0.76 L118.52,87.82z M122.19,86.17l-0.51-0.38c0-0.08,0.11-0.27,0.32-0.57c0.21-0.3,0.4-0.44,0.57-0.44c0.51,0,0.93-0.29,1.27-0.89 c0.17-0.34,0.25-0.68,0.25-1.01c0-0.59-0.17-1.22-0.51-1.9l-0.25-0.38l4.69,3.3L122.19,86.17z M122.19,86.3l-0.51-0.38 c0-0.08,0.11-0.27,0.32-0.57c0.21-0.3,0.4-0.44,0.57-0.44c0.51,0,0.93-0.29,1.27-0.89c0.17-0.34,0.25-0.68,0.25-1.01 c0-0.59-0.17-1.22-0.51-1.9l-0.25-0.38l4.69,3.3L122.19,86.3z M139.57,158.34c-5.33,0-8.75-0.04-10.27-0.13h2.03 c2.28-0.17,5.16-0.25,8.63-0.25c2.2,0,3.63-0.59,4.31-1.78c0.34-0.59,0.59-1.82,0.76-3.68l0.25-1.78c0,1.01,0.08,2.03,0.25,3.04 c0.17,1.01,0.25,1.82,0.25,2.41c0,0.59-0.08,1.01-0.25,1.27C144.86,158.05,142.87,158.34,139.57,158.34z M139.57,158.47 c-5.33,0-8.75-0.04-10.27-0.13h2.03c2.28-0.17,5.16-0.25,8.63-0.25c2.2,0,3.63-0.59,4.31-1.78c0.34-0.59,0.59-1.82,0.76-3.68 l0.25-1.78c0,1.02,0.08,2.03,0.25,3.04c0.17,1.01,0.25,1.82,0.25,2.41c0,0.59-0.08,1.01-0.25,1.27 C144.86,158.18,142.87,158.47,139.57,158.47z"/> </g> </g> </g>
</svg>